<?xml version="1.0" encoding="UTF-8"?>
<svg id="Layer_1" data-name="Layer 1" xmlns="http://www.w3.org/2000/svg" viewBox="0 0 79.6 100">
  <defs>
    <style>
      .cls-1 {
        fill: #b39359;
      }

      .cls-2 {
        fill: #0d2c3d;
      }
    </style>
  </defs>
  <path class="cls-2" d="m65.09,0H14.51C6.5,0,0,6.5,0,14.51v70.98c0,8.01,6.5,14.51,14.51,14.51h50.58c8.02,0,14.51-6.5,14.51-14.51V14.51c0-8.02-6.49-14.51-14.51-14.51Zm8.01,85.49c0,2.22-.89,4.21-2.35,5.67-1.46,1.46-3.44,2.34-5.67,2.35H14.51c-2.22,0-4.21-.89-5.67-2.35-1.45-1.46-2.34-3.44-2.35-5.67V14.51c0-2.22.89-4.21,2.35-5.67,1.46-1.45,3.44-2.34,5.67-2.35h50.58c2.22,0,4.21.89,5.67,2.35,1.45,1.46,2.34,3.44,2.35,5.67v70.98h0Z"/>
  <path class="cls-1" d="m39.8,22.43c-9.92,0-17.95,8.04-17.95,17.95,0,9.92,8.04,17.95,17.95,17.95,9.91,0,17.95-8.04,17.95-17.95s-8.04-17.95-17.95-17.95Zm-10.51,7.44c1.55-1.55,3.43-2.75,5.54-3.5-1,1.22-1.85,2.78-2.5,4.58h-4.02c.31-.38.64-.74.98-1.09Zm-2.13,2.68h4.64c-.59,2.12-.95,4.5-1.02,7.03h-5.83c.14-2.58.93-4.97,2.21-7.03Zm-2.21,8.63h5.84c.07,2.53.41,4.91,1.01,7.03h-4.64c-1.28-2.06-2.07-4.46-2.21-7.03Zm4.34,9.71c-.35-.35-.68-.71-.98-1.09h4.02c.29.78.6,1.52.95,2.2.46.89.98,1.69,1.55,2.38-2.1-.75-3.99-1.95-5.53-3.5Zm9.72,4.33c-.25-.01-.5-.03-.75-.05-.39-.18-.78-.42-1.16-.73-1.17-.96-2.25-2.57-3.08-4.64h4.98v5.42h0Zm0-7.01h-5.54c-.63-2.07-1.02-4.47-1.08-7.03h6.62v7.03Zm0-8.63h-6.62c.07-2.57.46-4.97,1.09-7.03h5.53v7.03Zm0-8.63h-4.98c.2-.52.42-1.02.66-1.47.71-1.37,1.54-2.45,2.41-3.16.38-.31.77-.55,1.16-.73.25-.02.49-.04.75-.06v5.42h0Zm15.64,8.63h-5.84c-.06-2.53-.41-4.92-1.01-7.03h4.64c1.28,2.06,2.08,4.46,2.21,7.03Zm-4.33-9.71c.35.35.67.71.98,1.09h-4.02c-.28-.78-.6-1.52-.95-2.2-.46-.89-.98-1.69-1.55-2.38,2.1.75,3.99,1.95,5.54,3.5Zm-9.72-4.33c.25.01.49.03.74.06.39.18.78.42,1.16.73,1.17.95,2.26,2.57,3.08,4.64h-4.98v-5.42h0Zm0,7.01h5.53c.63,2.07,1.02,4.47,1.09,7.03h-6.62v-7.03h0Zm0,8.63h6.61c-.07,2.57-.46,4.97-1.08,7.03h-5.53v-7.03Zm1.9,13.26c-.38.31-.77.55-1.16.73-.25.02-.49.04-.74.05v-5.42h4.97c-.21.52-.42,1.02-.66,1.47-.71,1.37-1.54,2.45-2.41,3.16Zm7.81-3.55c-1.55,1.55-3.44,2.75-5.54,3.5,1.01-1.22,1.85-2.78,2.5-4.59h4.02c-.31.38-.64.74-.98,1.09Zm2.12-2.68h-4.64c.59-2.12.95-4.5,1.02-7.03h5.83c-.13,2.58-.93,4.97-2.21,7.03Z"/>
  <path class="cls-1" d="m22.63,68.29h-5.14l-.2.2v12.86l.2.2h2.47l.19-.2v-4.42l.12-.12h2.36c2.87,0,4.62-1.75,4.62-4.25,0-2.53-1.73-4.27-4.62-4.27Zm-.17,6.04h-2.18l-.12-.12v-3.33l.12-.12h2.18c1.21,0,1.93.72,1.93,1.79s-.72,1.77-1.93,1.77Z"/>
  <path class="cls-1" d="m35.36,68.29h-2.46l-.25.2-4.56,12.86.14.2h2.55l.25-.2.74-2.32h4.64l.76,2.32.25.2h2.53l.14-.2-4.48-12.86-.25-.2Zm-2.79,8.3l1.5-4.64h.06l1.5,4.64h-3.06Z"/>
  <path class="cls-1" d="m47.14,73.57l-.7-.1c-1.52-.22-2.06-.7-2.06-1.46,0-.84.6-1.44,1.77-1.44,1.09,0,2.07.35,3.08,1.01l.27-.06,1.19-1.77-.04-.29c-1.11-.86-2.75-1.38-4.5-1.38-2.86,0-4.7,1.62-4.7,4.05s1.5,3.6,4.19,3.98l.7.1c1.58.21,2.05.7,2.05,1.48,0,.94-.78,1.58-2.16,1.58s-2.59-.66-3.47-1.36l-.29.02-1.48,1.69.02.33c1.03.99,3.04,1.81,5.11,1.81,3.43,0,5.2-1.77,5.2-4.17,0-2.4-1.44-3.64-4.17-4.01Z"/>
  <path class="cls-1" d="m58.74,73.57l-.7-.1c-1.52-.22-2.07-.7-2.07-1.46,0-.84.6-1.44,1.77-1.44,1.09,0,2.07.35,3.08,1.01l.27-.06,1.19-1.77-.04-.29c-1.11-.86-2.74-1.38-4.5-1.38-2.87,0-4.7,1.62-4.7,4.05s1.5,3.6,4.19,3.98l.7.1c1.58.21,2.05.7,2.05,1.48,0,.94-.78,1.58-2.16,1.58s-2.59-.66-3.47-1.36l-.29.02-1.48,1.69.02.33c1.03.99,3.04,1.81,5.11,1.81,3.43,0,5.2-1.77,5.2-4.17,0-2.4-1.44-3.64-4.17-4.01Z"/>
</svg>