<?xml version="1.0" encoding="UTF-8"?>
<svg id="Layer_1" data-name="Layer 1" xmlns="http://www.w3.org/2000/svg" xmlns:xlink="http://www.w3.org/1999/xlink" viewBox="0 0 1665.22 1406.29">
  <defs>
    <style>
      .cls-1 {
        fill: url(#linear-gradient-150);
      }

      .cls-1, .cls-2, .cls-3, .cls-4, .cls-5, .cls-6, .cls-7, .cls-8, .cls-9, .cls-10, .cls-11, .cls-12, .cls-13, .cls-14, .cls-15, .cls-16, .cls-17, .cls-18, .cls-19, .cls-20, .cls-21, .cls-22, .cls-23, .cls-24, .cls-25, .cls-26, .cls-27, .cls-28, .cls-29, .cls-30, .cls-31, .cls-32, .cls-33, .cls-34, .cls-35, .cls-36, .cls-37, .cls-38, .cls-39, .cls-40, .cls-41, .cls-42, .cls-43, .cls-44, .cls-45, .cls-46, .cls-47, .cls-48, .cls-49, .cls-50, .cls-51, .cls-52, .cls-53, .cls-54, .cls-55, .cls-56, .cls-57, .cls-58, .cls-59, .cls-60, .cls-61, .cls-62, .cls-63, .cls-64, .cls-65, .cls-66, .cls-67, .cls-68, .cls-69, .cls-70, .cls-71, .cls-72, .cls-73, .cls-74, .cls-75, .cls-76, .cls-77, .cls-78, .cls-79, .cls-80, .cls-81, .cls-82, .cls-83, .cls-84, .cls-85, .cls-86, .cls-87, .cls-88, .cls-89, .cls-90, .cls-91, .cls-92, .cls-93, .cls-94, .cls-95, .cls-96, .cls-97, .cls-98, .cls-99, .cls-100, .cls-101, .cls-102, .cls-103, .cls-104, .cls-105, .cls-106, .cls-107, .cls-108, .cls-109, .cls-110, .cls-111, .cls-112, .cls-113, .cls-114, .cls-115, .cls-116, .cls-117, .cls-118, .cls-119, .cls-120, .cls-121, .cls-122, .cls-123, .cls-124, .cls-125, .cls-126, .cls-127, .cls-128, .cls-129, .cls-130, .cls-131, .cls-132, .cls-133, .cls-134, .cls-135, .cls-136, .cls-137, .cls-138, .cls-139, .cls-140, .cls-141, .cls-142, .cls-143, .cls-144, .cls-145, .cls-146, .cls-147, .cls-148, .cls-149, .cls-150, .cls-151, .cls-152 {
        stroke: #fff;
        stroke-miterlimit: 10;
      }

      .cls-2 {
        fill: url(#linear-gradient-151);
      }

      .cls-3 {
        fill: url(#linear-gradient-152);
      }

      .cls-4 {
        fill: url(#linear-gradient-141);
      }

      .cls-5 {
        fill: url(#linear-gradient-147);
      }

      .cls-6 {
        fill: url(#linear-gradient-140);
      }

      .cls-7 {
        fill: url(#linear-gradient-142);
      }

      .cls-8 {
        fill: url(#linear-gradient-146);
      }

      .cls-9 {
        fill: url(#linear-gradient-143);
      }

      .cls-10 {
        fill: url(#linear-gradient-145);
      }

      .cls-11 {
        fill: url(#linear-gradient-144);
      }

      .cls-12 {
        fill: url(#linear-gradient-149);
      }

      .cls-13 {
        fill: url(#linear-gradient-148);
      }

      .cls-14 {
        fill: url(#linear-gradient-120);
      }

      .cls-15 {
        fill: url(#linear-gradient-126);
      }

      .cls-16 {
        fill: url(#linear-gradient-124);
      }

      .cls-17 {
        fill: url(#linear-gradient-125);
      }

      .cls-18 {
        fill: url(#linear-gradient-133);
      }

      .cls-19 {
        fill: url(#linear-gradient-137);
      }

      .cls-20 {
        fill: url(#linear-gradient-116);
      }

      .cls-21 {
        fill: url(#linear-gradient-119);
      }

      .cls-22 {
        fill: url(#linear-gradient-118);
      }

      .cls-23 {
        fill: url(#linear-gradient-111);
      }

      .cls-24 {
        fill: url(#linear-gradient-117);
      }

      .cls-25 {
        fill: url(#linear-gradient-128);
      }

      .cls-26 {
        fill: url(#linear-gradient-127);
      }

      .cls-27 {
        fill: url(#linear-gradient-112);
      }

      .cls-28 {
        fill: url(#linear-gradient-129);
      }

      .cls-29 {
        fill: url(#linear-gradient-121);
      }

      .cls-30 {
        fill: url(#linear-gradient-123);
      }

      .cls-31 {
        fill: url(#linear-gradient-100);
      }

      .cls-32 {
        fill: url(#linear-gradient-101);
      }

      .cls-33 {
        fill: url(#linear-gradient-122);
      }

      .cls-34 {
        fill: url(#linear-gradient-103);
      }

      .cls-35 {
        fill: url(#linear-gradient-102);
      }

      .cls-36 {
        fill: url(#linear-gradient-104);
      }

      .cls-37 {
        fill: url(#linear-gradient-109);
      }

      .cls-38 {
        fill: url(#linear-gradient-108);
      }

      .cls-39 {
        fill: url(#linear-gradient-106);
      }

      .cls-40 {
        fill: url(#linear-gradient-107);
      }

      .cls-41 {
        fill: url(#linear-gradient-115);
      }

      .cls-42 {
        fill: url(#linear-gradient-110);
      }

      .cls-43 {
        fill: url(#linear-gradient-113);
      }

      .cls-44 {
        fill: url(#linear-gradient-114);
      }

      .cls-45 {
        fill: url(#linear-gradient-105);
      }

      .cls-46 {
        fill: url(#linear-gradient-130);
      }

      .cls-47 {
        fill: url(#linear-gradient-135);
      }

      .cls-48 {
        fill: url(#linear-gradient-132);
      }

      .cls-49 {
        fill: url(#linear-gradient-136);
      }

      .cls-50 {
        fill: url(#linear-gradient-131);
      }

      .cls-51 {
        fill: url(#linear-gradient-134);
      }

      .cls-52 {
        fill: url(#linear-gradient-138);
      }

      .cls-53 {
        fill: url(#linear-gradient-139);
      }

      .cls-54 {
        fill: url(#linear-gradient-33);
      }

      .cls-55 {
        fill: url(#linear-gradient-29);
      }

      .cls-56 {
        fill: url(#linear-gradient-28);
      }

      .cls-57 {
        fill: url(#linear-gradient-32);
      }

      .cls-58 {
        fill: url(#linear-gradient-30);
      }

      .cls-59 {
        fill: url(#linear-gradient-31);
      }

      .cls-60 {
        fill: url(#linear-gradient-38);
      }

      .cls-61 {
        fill: url(#linear-gradient-39);
      }

      .cls-62 {
        fill: url(#linear-gradient-36);
      }

      .cls-63 {
        fill: url(#linear-gradient-37);
      }

      .cls-64 {
        fill: url(#linear-gradient-34);
      }

      .cls-65 {
        fill: url(#linear-gradient-35);
      }

      .cls-66 {
        fill: url(#linear-gradient-25);
      }

      .cls-67 {
        fill: url(#linear-gradient-26);
      }

      .cls-68 {
        fill: url(#linear-gradient-24);
      }

      .cls-69 {
        fill: url(#linear-gradient-27);
      }

      .cls-70 {
        fill: url(#linear-gradient-22);
      }

      .cls-71 {
        fill: url(#linear-gradient-18);
      }

      .cls-72 {
        fill: url(#linear-gradient-14);
      }

      .cls-73 {
        fill: url(#linear-gradient-20);
      }

      .cls-74 {
        fill: url(#linear-gradient-15);
      }

      .cls-75 {
        fill: url(#linear-gradient-23);
      }

      .cls-76 {
        fill: url(#linear-gradient-21);
      }

      .cls-77 {
        fill: url(#linear-gradient-19);
      }

      .cls-78 {
        fill: url(#linear-gradient-17);
      }

      .cls-79 {
        fill: url(#linear-gradient-16);
      }

      .cls-80 {
        fill: url(#linear-gradient-12);
      }

      .cls-81 {
        fill: url(#linear-gradient-13);
      }

      .cls-82 {
        fill: url(#linear-gradient-11);
      }

      .cls-83 {
        fill: url(#linear-gradient-10);
      }

      .cls-84 {
        fill: url(#linear-gradient-83);
      }

      .cls-85 {
        fill: url(#linear-gradient-84);
      }

      .cls-86 {
        fill: url(#linear-gradient-85);
      }

      .cls-87 {
        fill: url(#linear-gradient-82);
      }

      .cls-88 {
        fill: url(#linear-gradient-81);
      }

      .cls-89 {
        fill: url(#linear-gradient-80);
      }

      .cls-90 {
        fill: url(#linear-gradient-87);
      }

      .cls-91 {
        fill: url(#linear-gradient-88);
      }

      .cls-92 {
        fill: url(#linear-gradient-86);
      }

      .cls-93 {
        fill: url(#linear-gradient-89);
      }

      .cls-94 {
        fill: url(#linear-gradient-51);
      }

      .cls-95 {
        fill: url(#linear-gradient-52);
      }

      .cls-96 {
        fill: url(#linear-gradient-54);
      }

      .cls-97 {
        fill: url(#linear-gradient-50);
      }

      .cls-98 {
        fill: url(#linear-gradient-53);
      }

      .cls-99 {
        fill: url(#linear-gradient-58);
      }

      .cls-100 {
        fill: url(#linear-gradient-57);
      }

      .cls-101 {
        fill: url(#linear-gradient-56);
      }

      .cls-102 {
        fill: url(#linear-gradient-55);
      }

      .cls-103 {
        fill: url(#linear-gradient-59);
      }

      .cls-104 {
        fill: url(#linear-gradient-93);
      }

      .cls-105 {
        fill: url(#linear-gradient-90);
      }

      .cls-106 {
        fill: url(#linear-gradient-92);
      }

      .cls-107 {
        fill: url(#linear-gradient-97);
      }

      .cls-108 {
        fill: url(#linear-gradient-96);
      }

      .cls-109 {
        fill: url(#linear-gradient-94);
      }

      .cls-110 {
        fill: url(#linear-gradient-95);
      }

      .cls-111 {
        fill: url(#linear-gradient-99);
      }

      .cls-112 {
        fill: url(#linear-gradient-91);
      }

      .cls-113 {
        fill: url(#linear-gradient-98);
      }

      .cls-114 {
        fill: url(#linear-gradient-60);
      }

      .cls-115 {
        fill: url(#linear-gradient-66);
      }

      .cls-116 {
        fill: url(#linear-gradient-65);
      }

      .cls-117 {
        fill: url(#linear-gradient-61);
      }

      .cls-118 {
        fill: url(#linear-gradient-62);
      }

      .cls-119 {
        fill: url(#linear-gradient-64);
      }

      .cls-120 {
        fill: url(#linear-gradient-69);
      }

      .cls-121 {
        fill: url(#linear-gradient-67);
      }

      .cls-122 {
        fill: url(#linear-gradient-68);
      }

      .cls-123 {
        fill: url(#linear-gradient-63);
      }

      .cls-124 {
        fill: url(#linear-gradient-70);
      }

      .cls-125 {
        fill: url(#linear-gradient-71);
      }

      .cls-126 {
        fill: url(#linear-gradient-76);
      }

      .cls-127 {
        fill: url(#linear-gradient-72);
      }

      .cls-128 {
        fill: url(#linear-gradient-73);
      }

      .cls-129 {
        fill: url(#linear-gradient-75);
      }

      .cls-130 {
        fill: url(#linear-gradient-74);
      }

      .cls-131 {
        fill: url(#linear-gradient-79);
      }

      .cls-132 {
        fill: url(#linear-gradient-77);
      }

      .cls-133 {
        fill: url(#linear-gradient-78);
      }

      .cls-134 {
        fill: url(#linear-gradient-41);
      }

      .cls-135 {
        fill: url(#linear-gradient-42);
      }

      .cls-136 {
        fill: url(#linear-gradient-40);
      }

      .cls-137 {
        fill: url(#linear-gradient-43);
      }

      .cls-138 {
        fill: url(#linear-gradient-49);
      }

      .cls-139 {
        fill: url(#linear-gradient-47);
      }

      .cls-140 {
        fill: url(#linear-gradient-48);
      }

      .cls-141 {
        fill: url(#linear-gradient-44);
      }

      .cls-142 {
        fill: url(#linear-gradient-46);
      }

      .cls-143 {
        fill: url(#linear-gradient-45);
      }

      .cls-144 {
        fill: url(#linear-gradient-5);
      }

      .cls-145 {
        fill: url(#linear-gradient-6);
      }

      .cls-146 {
        fill: url(#linear-gradient-3);
      }

      .cls-147 {
        fill: url(#linear-gradient-4);
      }

      .cls-148 {
        fill: url(#linear-gradient-2);
      }

      .cls-149 {
        fill: url(#linear-gradient-8);
      }

      .cls-150 {
        fill: url(#linear-gradient-9);
      }

      .cls-151 {
        fill: url(#linear-gradient-7);
      }

      .cls-152 {
        fill: url(#linear-gradient);
      }
    </style>
    <linearGradient id="linear-gradient" x1=".51" y1="703.12" x2="5.42" y2="703.12" gradientUnits="userSpaceOnUse">
      <stop offset="0" stop-color="#fff"/>
      <stop offset="1" stop-color="#000"/>
    </linearGradient>
    <linearGradient id="linear-gradient-2" x1="11.51" y1="703.07" x2="27.02" y2="703.07" xlink:href="#linear-gradient"/>
    <linearGradient id="linear-gradient-3" x1="22.5" y1="703.01" x2="48.17" y2="703.01" xlink:href="#linear-gradient"/>
    <linearGradient id="linear-gradient-4" x1="33.48" y1="702.97" x2="69.06" y2="702.97" xlink:href="#linear-gradient"/>
    <linearGradient id="linear-gradient-5" x1="44.44" y1="702.92" x2="89.56" y2="702.92" xlink:href="#linear-gradient"/>
    <linearGradient id="linear-gradient-6" x1="55.38" y1="702.88" x2="109.71" y2="702.88" xlink:href="#linear-gradient"/>
    <linearGradient id="linear-gradient-7" x1="66.29" y1="702.85" x2="129.53" y2="702.85" xlink:href="#linear-gradient"/>
    <linearGradient id="linear-gradient-8" x1="77.16" y1="702.82" x2="149.01" y2="702.82" xlink:href="#linear-gradient"/>
    <linearGradient id="linear-gradient-9" x1="88" y1="702.79" x2="168.16" y2="702.79" xlink:href="#linear-gradient"/>
    <linearGradient id="linear-gradient-10" x1="98.79" y1="702.77" x2="186.98" y2="702.77" xlink:href="#linear-gradient"/>
    <linearGradient id="linear-gradient-11" x1="109.54" y1="702.75" x2="205.48" y2="702.75" xlink:href="#linear-gradient"/>
    <linearGradient id="linear-gradient-12" x1="120.24" y1="702.74" x2="223.67" y2="702.74" xlink:href="#linear-gradient"/>
    <linearGradient id="linear-gradient-13" x1="130.89" y1="702.72" x2="241.54" y2="702.72" xlink:href="#linear-gradient"/>
    <linearGradient id="linear-gradient-14" x1="141.48" y1="702.71" x2="259.11" y2="702.71" xlink:href="#linear-gradient"/>
    <linearGradient id="linear-gradient-15" x1="152.01" y1="702.7" x2="276.38" y2="702.7" xlink:href="#linear-gradient"/>
    <linearGradient id="linear-gradient-16" x1="162.48" y1="702.7" x2="293.36" y2="702.7" xlink:href="#linear-gradient"/>
    <linearGradient id="linear-gradient-17" x1="172.88" y1="702.69" x2="310.04" y2="702.69" xlink:href="#linear-gradient"/>
    <linearGradient id="linear-gradient-18" x1="183.22" y1="702.69" x2="326.45" y2="702.69" xlink:href="#linear-gradient"/>
    <linearGradient id="linear-gradient-19" x1="193.48" y1="702.69" x2="342.57" y2="702.69" xlink:href="#linear-gradient"/>
    <linearGradient id="linear-gradient-20" x1="203.67" y1="702.69" x2="358.42" y2="702.69" xlink:href="#linear-gradient"/>
    <linearGradient id="linear-gradient-21" x1="213.78" y1="702.69" x2="373.99" y2="702.69" xlink:href="#linear-gradient"/>
    <linearGradient id="linear-gradient-22" x1="223.83" y1="702.69" x2="389.31" y2="702.69" xlink:href="#linear-gradient"/>
    <linearGradient id="linear-gradient-23" x1="233.79" y1="702.69" x2="404.39" y2="702.69" xlink:href="#linear-gradient"/>
    <linearGradient id="linear-gradient-24" x1="243.68" y1="702.69" x2="419.15" y2="702.69" xlink:href="#linear-gradient"/>
    <linearGradient id="linear-gradient-25" x1="253.49" y1="702.69" x2="433.7" y2="702.69" xlink:href="#linear-gradient"/>
    <linearGradient id="linear-gradient-26" x1="263.22" y1="702.7" x2="448" y2="702.7" xlink:href="#linear-gradient"/>
    <linearGradient id="linear-gradient-27" x1="272.87" y1="702.7" x2="462.07" y2="702.7" xlink:href="#linear-gradient"/>
    <linearGradient id="linear-gradient-28" x1="282.43" y1="702.71" x2="475.9" y2="702.71" xlink:href="#linear-gradient"/>
    <linearGradient id="linear-gradient-29" x1="291.92" y1="702.71" x2="489.49" y2="702.71" xlink:href="#linear-gradient"/>
    <linearGradient id="linear-gradient-30" x1="301.32" y1="702.72" x2="502.87" y2="702.72" xlink:href="#linear-gradient"/>
    <linearGradient id="linear-gradient-31" x1="310.64" y1="702.73" x2="516.02" y2="702.73" xlink:href="#linear-gradient"/>
    <linearGradient id="linear-gradient-32" x1="319.89" y1="702.73" x2="528.96" y2="702.73" xlink:href="#linear-gradient"/>
    <linearGradient id="linear-gradient-33" x1="329.04" y1="702.74" x2="541.69" y2="702.74" xlink:href="#linear-gradient"/>
    <linearGradient id="linear-gradient-34" x1="338.12" y1="702.75" x2="554.23" y2="702.75" xlink:href="#linear-gradient"/>
    <linearGradient id="linear-gradient-35" x1="347.12" y1="702.75" x2="566.53" y2="702.75" xlink:href="#linear-gradient"/>
    <linearGradient id="linear-gradient-36" x1="356.04" y1="702.76" x2="578.66" y2="702.76" xlink:href="#linear-gradient"/>
    <linearGradient id="linear-gradient-37" x1="364.88" y1="702.77" x2="590.6" y2="702.77" xlink:href="#linear-gradient"/>
    <linearGradient id="linear-gradient-38" x1="373.64" y1="702.78" x2="602.35" y2="702.78" xlink:href="#linear-gradient"/>
    <linearGradient id="linear-gradient-39" x1="382.32" y1="702.79" x2="613.91" y2="702.79" xlink:href="#linear-gradient"/>
    <linearGradient id="linear-gradient-40" x1="390.93" y1="702.8" x2="625.31" y2="702.8" xlink:href="#linear-gradient"/>
    <linearGradient id="linear-gradient-41" x1="399.47" y1="702.8" x2="636.53" y2="702.8" xlink:href="#linear-gradient"/>
    <linearGradient id="linear-gradient-42" x1="407.93" y1="702.81" x2="647.58" y2="702.81" xlink:href="#linear-gradient"/>
    <linearGradient id="linear-gradient-43" x1="416.31" y1="702.82" x2="658.47" y2="702.82" xlink:href="#linear-gradient"/>
    <linearGradient id="linear-gradient-44" x1="424.63" y1="702.83" x2="669.2" y2="702.83" xlink:href="#linear-gradient"/>
    <linearGradient id="linear-gradient-45" x1="432.88" y1="702.84" x2="679.79" y2="702.84" xlink:href="#linear-gradient"/>
    <linearGradient id="linear-gradient-46" x1="441.07" y1="702.85" x2="690.22" y2="702.85" xlink:href="#linear-gradient"/>
    <linearGradient id="linear-gradient-47" x1="449.19" y1="702.86" x2="700.51" y2="702.86" xlink:href="#linear-gradient"/>
    <linearGradient id="linear-gradient-48" x1="457.24" y1="702.87" x2="710.67" y2="702.87" xlink:href="#linear-gradient"/>
    <linearGradient id="linear-gradient-49" x1="465.22" y1="702.88" x2="720.68" y2="702.88" xlink:href="#linear-gradient"/>
    <linearGradient id="linear-gradient-50" x1="473.18" y1="702.89" x2="730.57" y2="702.89" xlink:href="#linear-gradient"/>
    <linearGradient id="linear-gradient-51" x1="481.06" y1="702.9" x2="740.33" y2="702.9" xlink:href="#linear-gradient"/>
    <linearGradient id="linear-gradient-52" x1="488.85" y1="702.92" x2="749.98" y2="702.92" xlink:href="#linear-gradient"/>
    <linearGradient id="linear-gradient-53" x1="496.62" y1="702.93" x2="759.5" y2="702.93" xlink:href="#linear-gradient"/>
    <linearGradient id="linear-gradient-54" x1="504.34" y1="702.94" x2="768.92" y2="702.94" xlink:href="#linear-gradient"/>
    <linearGradient id="linear-gradient-55" x1="512.02" y1="702.95" x2="778.23" y2="702.95" xlink:href="#linear-gradient"/>
    <linearGradient id="linear-gradient-56" x1="519.65" y1="702.96" x2="787.43" y2="702.96" xlink:href="#linear-gradient"/>
    <linearGradient id="linear-gradient-57" x1="527.24" y1="702.97" x2="796.54" y2="702.97" xlink:href="#linear-gradient"/>
    <linearGradient id="linear-gradient-58" x1="534.79" y1="702.98" x2="805.55" y2="702.98" xlink:href="#linear-gradient"/>
    <linearGradient id="linear-gradient-59" x1="542.32" y1="702.99" x2="814.48" y2="702.99" xlink:href="#linear-gradient"/>
    <linearGradient id="linear-gradient-60" x1="549.81" y1="703" x2="823.32" y2="703" xlink:href="#linear-gradient"/>
    <linearGradient id="linear-gradient-61" x1="557.27" y1="703.02" x2="832.07" y2="703.02" xlink:href="#linear-gradient"/>
    <linearGradient id="linear-gradient-62" x1="564.71" y1="703.03" x2="840.75" y2="703.03" xlink:href="#linear-gradient"/>
    <linearGradient id="linear-gradient-63" x1="572.12" y1="703.04" x2="849.36" y2="703.04" xlink:href="#linear-gradient"/>
    <linearGradient id="linear-gradient-64" x1="579.52" y1="703.05" x2="857.9" y2="703.05" xlink:href="#linear-gradient"/>
    <linearGradient id="linear-gradient-65" x1="586.91" y1="703.06" x2="866.37" y2="703.06" xlink:href="#linear-gradient"/>
    <linearGradient id="linear-gradient-66" x1="594.28" y1="703.07" x2="874.79" y2="703.07" xlink:href="#linear-gradient"/>
    <linearGradient id="linear-gradient-67" x1="601.65" y1="703.08" x2="883.14" y2="703.08" xlink:href="#linear-gradient"/>
    <linearGradient id="linear-gradient-68" x1="609.01" y1="703.1" x2="891.45" y2="703.1" xlink:href="#linear-gradient"/>
    <linearGradient id="linear-gradient-69" x1="616.35" y1="703.11" x2="899.7" y2="703.11" xlink:href="#linear-gradient"/>
    <linearGradient id="linear-gradient-70" x1="623.74" y1="703.12" x2="907.91" y2="703.12" xlink:href="#linear-gradient"/>
    <linearGradient id="linear-gradient-71" x1="631.08" y1="703.13" x2="916.08" y2="703.13" xlink:href="#linear-gradient"/>
    <linearGradient id="linear-gradient-72" x1="638.46" y1="703.14" x2="924.22" y2="703.14" xlink:href="#linear-gradient"/>
    <linearGradient id="linear-gradient-73" x1="645.86" y1="703.15" x2="932.27" y2="703.15" xlink:href="#linear-gradient"/>
    <linearGradient id="linear-gradient-74" x1="653.28" y1="703.16" x2="940.34" y2="703.16" xlink:href="#linear-gradient"/>
    <linearGradient id="linear-gradient-75" x1="660.72" y1="703.18" x2="948.38" y2="703.18" xlink:href="#linear-gradient"/>
    <linearGradient id="linear-gradient-76" x1="668.19" y1="703.19" x2="956.4" y2="703.19" xlink:href="#linear-gradient"/>
    <linearGradient id="linear-gradient-77" x1="675.69" y1="703.2" x2="964.4" y2="703.2" xlink:href="#linear-gradient"/>
    <linearGradient id="linear-gradient-78" x1="683.22" y1="703.21" x2="972.38" y2="703.21" xlink:href="#linear-gradient"/>
    <linearGradient id="linear-gradient-79" x1="690.79" y1="703.22" x2="980.35" y2="703.22" xlink:href="#linear-gradient"/>
    <linearGradient id="linear-gradient-80" x1="698.41" y1="703.23" x2="988.32" y2="703.23" xlink:href="#linear-gradient"/>
    <linearGradient id="linear-gradient-81" x1="706.07" y1="703.24" x2="996.27" y2="703.24" xlink:href="#linear-gradient"/>
    <linearGradient id="linear-gradient-82" x1="713.78" y1="703.25" x2="1004.22" y2="703.25" xlink:href="#linear-gradient"/>
    <linearGradient id="linear-gradient-83" x1="721.55" y1="703.26" x2="1012.18" y2="703.26" xlink:href="#linear-gradient"/>
    <linearGradient id="linear-gradient-84" x1="729.38" y1="703.28" x2="1020.13" y2="703.28" xlink:href="#linear-gradient"/>
    <linearGradient id="linear-gradient-85" x1="737.27" y1="703.29" x2="1028.1" y2="703.29" xlink:href="#linear-gradient"/>
    <linearGradient id="linear-gradient-86" x1="745.24" y1="703.3" x2="1036.07" y2="703.3" xlink:href="#linear-gradient"/>
    <linearGradient id="linear-gradient-87" x1="753.27" y1="703.31" x2="1044.05" y2="703.31" xlink:href="#linear-gradient"/>
    <linearGradient id="linear-gradient-88" x1="761.38" y1="703.32" x2="1052.06" y2="703.32" xlink:href="#linear-gradient"/>
    <linearGradient id="linear-gradient-89" x1="769.58" y1="703.33" x2="1060.08" y2="703.33" xlink:href="#linear-gradient"/>
    <linearGradient id="linear-gradient-90" x1="777.86" y1="703.34" x2="1068.12" y2="703.34" xlink:href="#linear-gradient"/>
    <linearGradient id="linear-gradient-91" x1="786.23" y1="703.35" x2="1076.18" y2="703.35" xlink:href="#linear-gradient"/>
    <linearGradient id="linear-gradient-92" x1="794.7" y1="703.36" x2="1084.27" y2="703.36" xlink:href="#linear-gradient"/>
    <linearGradient id="linear-gradient-93" x1="803.27" y1="703.37" x2="1092.39" y2="703.37" xlink:href="#linear-gradient"/>
    <linearGradient id="linear-gradient-94" x1="811.94" y1="703.38" x2="1100.53" y2="703.38" xlink:href="#linear-gradient"/>
    <linearGradient id="linear-gradient-95" x1="820.72" y1="703.39" x2="1108.74" y2="703.39" xlink:href="#linear-gradient"/>
    <linearGradient id="linear-gradient-96" x1="829.62" y1="703.4" x2="1116.95" y2="703.4" xlink:href="#linear-gradient"/>
    <linearGradient id="linear-gradient-97" x1="838.63" y1="703.41" x2="1125.22" y2="703.41" xlink:href="#linear-gradient"/>
    <linearGradient id="linear-gradient-98" x1="847.77" y1="703.42" x2="1133.52" y2="703.42" xlink:href="#linear-gradient"/>
    <linearGradient id="linear-gradient-99" x1="857.04" y1="703.43" x2="1141.88" y2="703.43" xlink:href="#linear-gradient"/>
    <linearGradient id="linear-gradient-100" x1="866.44" y1="703.43" x2="1150.27" y2="703.43" xlink:href="#linear-gradient"/>
    <linearGradient id="linear-gradient-101" x1="875.98" y1="703.44" x2="1158.71" y2="703.44" xlink:href="#linear-gradient"/>
    <linearGradient id="linear-gradient-102" x1="885.65" y1="703.45" x2="1167.2" y2="703.45" xlink:href="#linear-gradient"/>
    <linearGradient id="linear-gradient-103" x1="895.48" y1="703.46" x2="1175.74" y2="703.46" xlink:href="#linear-gradient"/>
    <linearGradient id="linear-gradient-104" x1="905.45" y1="703.47" x2="1184.33" y2="703.47" xlink:href="#linear-gradient"/>
    <linearGradient id="linear-gradient-105" x1="915.59" y1="703.48" x2="1192.95" y2="703.48" xlink:href="#linear-gradient"/>
    <linearGradient id="linear-gradient-106" x1="925.88" y1="703.48" x2="1201.64" y2="703.48" xlink:href="#linear-gradient"/>
    <linearGradient id="linear-gradient-107" x1="936.35" y1="703.49" x2="1210.39" y2="703.49" xlink:href="#linear-gradient"/>
    <linearGradient id="linear-gradient-108" x1="946.98" y1="703.5" x2="1219.2" y2="703.5" xlink:href="#linear-gradient"/>
    <linearGradient id="linear-gradient-109" x1="957.79" y1="703.51" x2="1228.07" y2="703.51" xlink:href="#linear-gradient"/>
    <linearGradient id="linear-gradient-110" x1="968.78" y1="703.51" x2="1237" y2="703.51" xlink:href="#linear-gradient"/>
    <linearGradient id="linear-gradient-111" x1="979.96" y1="703.52" x2="1245.98" y2="703.52" xlink:href="#linear-gradient"/>
    <linearGradient id="linear-gradient-112" x1="991.32" y1="703.53" x2="1255.03" y2="703.53" xlink:href="#linear-gradient"/>
    <linearGradient id="linear-gradient-113" x1="1002.89" y1="703.53" x2="1264.14" y2="703.53" xlink:href="#linear-gradient"/>
    <linearGradient id="linear-gradient-114" x1="1014.65" y1="703.54" x2="1273.31" y2="703.54" xlink:href="#linear-gradient"/>
    <linearGradient id="linear-gradient-115" x1="1026.62" y1="703.54" x2="1282.59" y2="703.54" xlink:href="#linear-gradient"/>
    <linearGradient id="linear-gradient-116" x1="1038.79" y1="703.55" x2="1291.89" y2="703.55" xlink:href="#linear-gradient"/>
    <linearGradient id="linear-gradient-117" x1="1051.19" y1="703.56" x2="1301.26" y2="703.56" xlink:href="#linear-gradient"/>
    <linearGradient id="linear-gradient-118" x1="1063.8" y1="703.56" x2="1310.69" y2="703.56" xlink:href="#linear-gradient"/>
    <linearGradient id="linear-gradient-119" x1="1076.64" y1="703.56" x2="1320.18" y2="703.56" xlink:href="#linear-gradient"/>
    <linearGradient id="linear-gradient-120" x1="1089.71" y1="703.57" x2="1329.74" y2="703.57" xlink:href="#linear-gradient"/>
    <linearGradient id="linear-gradient-121" x1="1103.01" y1="703.57" x2="1339.37" y2="703.57" xlink:href="#linear-gradient"/>
    <linearGradient id="linear-gradient-122" x1="1116.56" y1="703.58" x2="1349.06" y2="703.58" xlink:href="#linear-gradient"/>
    <linearGradient id="linear-gradient-123" x1="1130.35" y1="703.58" x2="1358.82" y2="703.58" xlink:href="#linear-gradient"/>
    <linearGradient id="linear-gradient-124" x1="1144.39" y1="703.58" x2="1368.64" y2="703.58" xlink:href="#linear-gradient"/>
    <linearGradient id="linear-gradient-125" x1="1158.68" y1="703.58" x2="1378.52" y2="703.58" xlink:href="#linear-gradient"/>
    <linearGradient id="linear-gradient-126" x1="1173.24" y1="703.58" x2="1388.47" y2="703.58" xlink:href="#linear-gradient"/>
    <linearGradient id="linear-gradient-127" x1="1188.06" y1="703.58" x2="1398.48" y2="703.58" xlink:href="#linear-gradient"/>
    <linearGradient id="linear-gradient-128" x1="1203.15" y1="703.58" x2="1408.56" y2="703.58" xlink:href="#linear-gradient"/>
    <linearGradient id="linear-gradient-129" x1="1218.51" y1="703.58" x2="1418.69" y2="703.58" xlink:href="#linear-gradient"/>
    <linearGradient id="linear-gradient-130" x1="1234.16" y1="703.58" x2="1428.87" y2="703.58" xlink:href="#linear-gradient"/>
    <linearGradient id="linear-gradient-131" x1="1250.09" y1="703.58" x2="1439.14" y2="703.58" xlink:href="#linear-gradient"/>
    <linearGradient id="linear-gradient-132" x1="1266.33" y1="703.58" x2="1449.45" y2="703.58" xlink:href="#linear-gradient"/>
    <linearGradient id="linear-gradient-133" x1="1282.84" y1="703.57" x2="1459.82" y2="703.57" xlink:href="#linear-gradient"/>
    <linearGradient id="linear-gradient-134" x1="1299.66" y1="703.57" x2="1470.24" y2="703.57" xlink:href="#linear-gradient"/>
    <linearGradient id="linear-gradient-135" x1="1316.77" y1="703.56" x2="1480.72" y2="703.56" xlink:href="#linear-gradient"/>
    <linearGradient id="linear-gradient-136" x1="1334.21" y1="703.55" x2="1491.24" y2="703.55" xlink:href="#linear-gradient"/>
    <linearGradient id="linear-gradient-137" x1="1351.96" y1="703.54" x2="1501.82" y2="703.54" xlink:href="#linear-gradient"/>
    <linearGradient id="linear-gradient-138" x1="1370.02" y1="703.53" x2="1512.45" y2="703.53" xlink:href="#linear-gradient"/>
    <linearGradient id="linear-gradient-139" x1="1388.42" y1="703.52" x2="1523.12" y2="703.52" xlink:href="#linear-gradient"/>
    <linearGradient id="linear-gradient-140" x1="1407.14" y1="703.51" x2="1533.83" y2="703.51" xlink:href="#linear-gradient"/>
    <linearGradient id="linear-gradient-141" x1="1426.21" y1="703.49" x2="1544.59" y2="703.49" xlink:href="#linear-gradient"/>
    <linearGradient id="linear-gradient-142" x1="1445.61" y1="703.47" x2="1555.37" y2="703.47" xlink:href="#linear-gradient"/>
    <linearGradient id="linear-gradient-143" x1="1465.36" y1="703.45" x2="1566.2" y2="703.45" xlink:href="#linear-gradient"/>
    <linearGradient id="linear-gradient-144" x1="1485.47" y1="703.43" x2="1577.06" y2="703.43" xlink:href="#linear-gradient"/>
    <linearGradient id="linear-gradient-145" x1="1505.92" y1="703.4" x2="1587.95" y2="703.4" xlink:href="#linear-gradient"/>
    <linearGradient id="linear-gradient-146" x1="1526.75" y1="703.37" x2="1598.86" y2="703.37" xlink:href="#linear-gradient"/>
    <linearGradient id="linear-gradient-147" x1="1547.93" y1="703.34" x2="1609.81" y2="703.34" xlink:href="#linear-gradient"/>
    <linearGradient id="linear-gradient-148" x1="1569.48" y1="703.31" x2="1620.76" y2="703.31" xlink:href="#linear-gradient"/>
    <linearGradient id="linear-gradient-149" x1="1591.42" y1="703.27" x2="1631.74" y2="703.27" xlink:href="#linear-gradient"/>
    <linearGradient id="linear-gradient-150" x1="1613.73" y1="703.23" x2="1642.72" y2="703.23" xlink:href="#linear-gradient"/>
    <linearGradient id="linear-gradient-151" x1="1636.4" y1="703.19" x2="1653.72" y2="703.19" xlink:href="#linear-gradient"/>
    <linearGradient id="linear-gradient-152" x1="1659.54" y1="703.14" x2="1664.72" y2="703.14" xlink:href="#linear-gradient"/>
  </defs>
  <path class="cls-152" d="m3.56,1172.01H.51c0-105.65.48-212.23.94-315.3.91-203.79,1.86-414.51-.94-622.42l3.05-.04c2.8,207.94,1.85,418.68.94,622.48-.46,103.06-.94,209.64-.94,315.28Z"/>
  <path class="cls-148" d="m11.51,1173.56c-.09-114.39,3.22-224.78,6.41-331.53,6.2-207.31,12.06-403.11-6.4-609.17l3.04-.27c18.48,206.24,12.62,402.14,6.41,609.54-3.19,106.73-6.49,217.09-6.41,331.44h-3.05Z"/>
  <path class="cls-146" d="m22.51,1175.11c-.3-123.08,5.92-236.93,11.93-347.04,11.01-201.66,21.42-392.13-11.91-596.65l3.01-.49c33.39,204.85,22.97,395.48,11.95,597.31-6.01,110.06-12.23,223.88-11.93,346.87h-3.05Z"/>
  <path class="cls-147" d="m33.51,1176.66c-.65-131.7,8.56-248.71,17.47-361.86,16.12-204.74,30.04-381.56-17.43-584.83l2.97-.69c21.74,93.08,32.07,186.5,32.52,293.99.4,95.85-7.09,191.02-15.02,291.77-8.9,113.09-18.11,230.03-17.46,361.61h-3.05Z"/>
  <path class="cls-144" d="m44.51,1178.21c-1.14-140.26,11.13-260.12,22.98-376.03,20.39-199.28,37.99-371.39-22.92-573.67l2.92-.88c27.95,92.8,41.3,184.7,42.03,289.22.65,93.56-8.89,186.86-19,285.64-11.85,115.83-24.1,235.61-22.97,375.7l-3.05.02Z"/>
  <path class="cls-145" d="m55.51,1179.76c-.79-66.5,1.87-134.31,8.14-207.31,5.52-64.38,13.04-124.31,20.31-182.27,24.34-194.03,45.36-361.6-28.35-563.14l2.87-1.05c33.87,92.62,50.14,183.14,51.19,284.87.94,91.41-10.53,182.86-22.67,279.69-14.15,112.8-30.19,240.64-28.42,389.16l-3.05.04Z"/>
  <path class="cls-151" d="m66.51,1181.32c-2.54-157.11,16.78-287.49,33.83-402.53,28-188.98,52.19-352.18-33.71-553.21l2.81-1.2c39.54,92.53,58.6,181.8,60,280.93,1.26,89.39-12.02,179.03-26.08,273.93-17.03,114.92-36.33,245.18-33.8,402.03l-3.05.05Z"/>
  <path class="cls-149" d="m77.51,1182.87c-3.45-165.38,19.16-297.95,39.11-414.91,32.7-191.71,58.54-343.13-38.96-543.87l2.74-1.33c44.94,92.53,66.7,180.66,68.47,277.35,1.61,87.49-13.38,175.34-29.25,268.36-19.93,116.83-42.52,249.24-39.07,414.33l-3.05.06Z"/>
  <path class="cls-150" d="m88.52,1184.43c-4.52-173.55,21.41-308.06,44.28-426.75,36.01-186.85,64.45-334.43-44.1-535.08l2.68-1.45c50.1,92.61,74.45,179.72,76.61,274.13,1.96,85.7-13.87,167.85-32.2,262.98-22.84,118.53-48.74,252.87-44.23,426.09l-3.05.08Z"/>
  <path class="cls-83" d="m99.52,1185.99c-5.73-181.59,23.51-317.84,49.31-438.05,39.1-182.18,69.98-326.08-49.1-526.83l2.62-1.56c55.03,92.77,81.85,178.96,84.41,271.24,2.33,84.03-14.95,164.55-34.96,257.78-25.76,120.04-54.96,256.1-49.25,437.32l-3.05.1Z"/>
  <path class="cls-82" d="m110.52,1187.54c-3.16-84.51,1.35-166.44,13.8-250.46,10.89-73.5,25.89-136.99,40.4-198.39,41.99-177.7,75.15-318.06-53.95-519.09l2.57-1.65c31.48,49.02,54.13,95.22,69.25,141.24,13.8,42.01,21.21,83.69,22.64,127.42,2.71,82.46-15.94,161.39-37.54,252.77-28.68,121.37-61.19,258.94-54.11,448.04l-3.05.11Z"/>
  <path class="cls-80" d="m121.52,1189.1c-3.83-87.94.94-172.46,14.58-258.36,11.92-75.05,29.14-141.86,44.33-200.8,46.45-180.18,80.01-310.37-58.65-511.84l2.51-1.73c33.84,49.17,58.21,95.2,74.49,140.73,14.89,41.64,22.93,82.74,24.56,125.65,3.08,80.99-16.87,158.36-39.96,247.95-31.59,122.54-67.39,261.42-58.82,458.27l-3.05.13Z"/>
  <path class="cls-81" d="m132.52,1190.66c-4.56-91.31.42-178.33,15.24-266.03,12.93-76.51,31.68-143.7,48.23-202.97,49.1-175.9,84.58-303-63.18-505.07l2.46-1.8c36.09,49.35,62.09,95.26,79.49,140.36,15.94,41.31,24.58,81.88,26.41,124.02,3.45,79.62-17.73,155.48-42.24,243.31-34.49,123.55-73.57,263.58-63.36,468.03l-3.05.15Z"/>
  <path class="cls-72" d="m143.52,1192.22c-5.36-94.62-.2-184.07,15.77-273.46,13.92-77.9,34.19-145.38,52.07-204.92,51.6-171.81,88.89-295.94-67.52-498.77l2.42-1.86c38.23,49.57,65.79,95.4,84.25,140.11,16.95,41.03,26.16,81.11,28.18,122.54,3.81,78.34-18.53,152.73-44.4,238.86-35.52,118.25-79.72,265.41-67.72,477.33l-3.05.17Z"/>
  <path class="cls-74" d="m154.52,1193.78c-6.22-97.86-.93-189.66,16.16-280.65,14.88-79.2,36.65-146.92,55.86-206.67,53.97-167.88,92.96-289.18-71.69-492.91l2.37-1.92c40.27,49.82,69.31,95.61,88.79,139.99,17.91,40.79,27.68,80.43,29.88,121.19,4.16,77.15-19.29,150.11-46.45,234.58-38.23,118.94-85.82,266.96-71.88,486.19l-3.05.19Z"/>
  <path class="cls-79" d="m165.53,1195.34c-7.14-101.04-1.77-195.11,16.42-287.6,15.82-80.43,39.07-148.32,59.59-208.23,56.21-164.13,96.83-282.72-75.66-487.48l2.33-1.97c42.21,50.11,72.66,95.89,93.11,139.98,18.82,40.59,29.12,79.83,31.5,119.97,4.5,76.04-20.01,147.61-48.39,230.49-40.93,119.5-91.86,268.23-75.86,494.62l-3.04.22Z"/>
  <path class="cls-78" d="m176.53,1196.89c-8.13-104.14-2.72-200.41,16.54-294.32,16.73-81.58,41.45-149.6,63.26-209.6,60.52-166.53,100.5-276.55-79.43-482.47l2.3-2.01c44.05,50.42,75.85,96.24,97.21,140.09,19.69,40.42,30.5,79.3,33.04,118.87,4.82,75.02-20.7,145.25-50.25,226.57-43.59,119.95-97.85,269.24-79.63,502.64l-3.04.24Z"/>
  <path class="cls-71" d="m187.53,1198.45c-20.63-240.95,37.05-391.03,83.39-511.62,62.63-162.98,104.01-270.65-83-477.87l2.27-2.04c45.81,50.76,78.88,96.65,101.11,140.3,20.52,40.29,31.81,78.85,34.51,117.89,2.35,33.95-1.62,68.6-12.49,109.03-9.77,36.33-24.23,73.96-39.54,113.79-46.23,120.3-103.76,270.01-83.2,510.27l-3.04.26Z"/>
  <path class="cls-77" d="m198.53,1200.01c-23.12-247.68,37.81-398.08,86.76-518.93,64.65-159.6,107.36-265.03-86.36-473.65l2.24-2.08c47.47,51.12,81.76,97.12,104.8,140.61,21.3,40.2,33.04,78.47,35.9,117.02,2.48,33.56-1.59,67.69-12.81,107.41-10.09,35.71-25.07,72.69-40.93,111.83-48.83,120.54-109.6,270.56-86.55,517.5l-3.04.28Z"/>
  <path class="cls-73" d="m209.53,1201.57c-11.44-113.01-6.19-215.43,16.07-313.1,19.29-84.63,48.28-152.7,73.85-212.76,32.62-76.6,60.79-142.75,55.17-214.4-6.12-77.99-50.74-156.77-144.68-255.42l2.21-2.1c49.05,51.52,84.48,97.65,108.31,141.02,22.04,40.13,34.21,78.16,37.2,116.26,2.61,33.2-1.57,66.85-13.13,105.89-10.4,35.12-25.88,71.46-42.27,109.94-51.4,120.69-115.37,270.9-89.7,524.35l-3.04.31Z"/>
  <path class="cls-76" d="m220.54,1203.13c-12.67-115.82-7.55-220.13,15.64-318.9,20.08-85.52,50.45-153.52,77.24-213.52,68.46-153.3,113.69-254.58-92.45-466.35l2.19-2.13c50.55,51.93,87.07,98.23,111.63,141.53,22.75,40.1,35.32,77.91,38.43,115.61,2.72,32.87-1.56,66.07-13.45,104.47-10.7,34.55-26.66,70.29-43.55,108.12-53.93,120.76-121.04,271.05-92.63,530.84l-3.03.33Z"/>
  <path class="cls-70" d="m231.54,1204.69c-13.94-118.55-9.02-224.69,15.06-324.48,20.83-86.35,52.56-154.25,80.55-214.15,34.54-73.92,64.37-137.76,58.29-207.95-6.6-76.24-53.93-154.97-153.47-255.29l2.17-2.15c51.97,52.37,89.51,98.86,114.76,142.12,23.41,40.1,36.35,77.73,39.58,115.05,2.82,32.57-1.56,65.35-13.77,103.14-10.99,34.02-27.41,69.16-44.8,106.36-56.41,120.74-126.62,271.01-95.34,536.98l-3.03.36Z"/>
  <path class="cls-75" d="m242.54,1206.25c-15.28-121.21-10.58-229.1,14.34-329.83,21.56-87.11,54.62-154.88,83.78-214.67,35.45-72.66,66.06-135.41,59.8-204.96-6.79-75.49-55.36-154.29-157.48-255.5l2.15-2.17c218.83,216.87,170.87,315.17,98.28,463.97-58.86,120.65-132.11,270.81-97.84,542.78l-3.03.38Z"/>
  <path class="cls-68" d="m253.54,1207.82c-16.66-123.79-12.25-233.36,13.48-334.97,22.24-87.82,56.61-155.42,86.93-215.06,37.82-74.39,67.7-133.15,61.28-202.14-6.96-74.83-56.69-153.75-161.25-255.9l2.13-2.18c54.58,53.32,94,100.28,120.51,143.57,24.61,40.17,38.23,77.54,41.64,114.23,2.98,32.06-1.6,64.07-14.44,100.75-11.55,33.02-28.85,67.04-47.16,103.05-61.26,120.49-137.5,270.45-100.11,548.24l-3.02.41Z"/>
  <path class="cls-66" d="m264.55,1209.38c-18.1-126.29-14.01-237.47,12.49-339.88,22.9-88.48,58.55-155.89,90-215.36,38.71-73.19,69.29-130.99,62.73-199.47-7.1-74.25-57.92-153.34-164.77-256.46l2.12-2.2c55.77,53.82,96.05,101.06,123.13,144.41,25.15,40.25,39.07,77.53,42.56,113.95,3.05,31.84-1.65,63.52-14.79,99.69-11.83,32.57-29.54,66.05-48.29,101.5-63.61,120.27-142.79,269.95-102.17,553.38l-3.02.43Z"/>
  <path class="cls-67" d="m275.55,1210.94c-19.59-128.71-15.87-241.43,11.35-344.58,23.51-89.08,60.42-156.27,92.99-215.55,39.57-72.03,70.83-128.92,64.17-196.95-7.22-73.74-59.05-153.06-168.06-257.19l2.11-2.21c56.89,54.35,97.98,101.88,125.6,145.33,25.66,40.36,39.85,77.57,43.39,113.77,3.1,31.65-1.72,63.02-15.15,98.7-12.1,32.14-30.21,65.11-49.39,100.01-65.92,119.99-147.96,269.32-104,558.21l-3.02.46Z"/>
  <path class="cls-69" d="m286.55,1212.5c-21.12-131.06-17.83-245.24,10.08-349.07,24.09-89.64,62.24-156.59,95.9-215.66,40.41-70.92,72.33-126.94,65.6-194.58-7.3-73.3-60.07-152.89-171.11-258.07l2.1-2.22c57.95,54.89,99.78,102.75,127.9,146.33,26.12,40.49,40.57,77.67,44.15,113.66,3.14,31.49-1.8,62.57-15.52,97.8-12.36,31.73-30.87,64.21-50.46,98.59-68.18,119.65-153.02,268.56-105.61,562.73l-3.01.49Z"/>
  <path class="cls-56" d="m297.56,1214.06c-22.71-133.32-19.87-248.9,8.67-353.35,24.63-90.14,63.99-156.83,98.71-215.68,41.23-69.87,73.8-125.05,67.01-192.35-7.35-72.94-61-152.85-173.94-259.11l2.09-2.22c58.94,55.45,101.48,103.66,130.05,147.39,26.56,40.64,41.22,77.81,44.83,113.63,3.16,31.35-1.9,62.16-15.92,96.98-12.62,31.35-31.51,63.35-51.5,97.23-70.38,119.27-157.97,267.7-107,566.96l-3.01.51Z"/>
  <path class="cls-55" d="m308.56,1215.62c-24.33-135.51-22-252.42,7.13-357.42,25.14-90.6,65.68-157.02,101.45-215.62,42.03-68.86,75.23-123.25,68.43-190.27-7.37-72.64-61.82-152.91-176.54-260.29l2.09-2.23c59.86,56.03,103.06,104.61,132.06,148.52,26.95,40.81,41.81,78,45.44,113.68,3.17,31.23-2.02,61.81-16.33,96.23-12.89,30.99-32.14,62.54-52.53,95.93-72.53,118.84-162.8,266.73-108.18,570.91l-3,.54Z"/>
  <path class="cls-58" d="m319.56,1217.18c-26.01-137.61-24.22-255.79,5.46-361.29,25.6-91.01,67.3-157.14,104.09-215.49,42.81-67.9,76.63-121.54,69.84-188.32-7.36-72.41-62.55-153.09-178.93-261.6l2.08-2.23c60.72,56.62,104.53,105.59,133.92,149.72,27.31,41.01,42.35,78.24,45.97,113.81,3.17,31.13-2.16,61.5-16.77,95.55-13.15,30.66-32.76,61.77-53.53,94.7-74.63,118.37-167.51,265.68-109.13,574.58l-3,.57Z"/>
  <path class="cls-59" d="m330.57,1218.75c-27.72-139.64-26.52-259.01,3.66-364.95,26.03-91.38,68.86-157.21,106.65-215.29,43.58-66.99,78.01-119.91,71.26-186.51-7.32-72.24-63.18-153.37-181.1-263.06l2.08-2.23c61.53,57.23,105.89,106.62,135.64,150.98,27.64,41.23,42.82,78.52,46.42,114,3.15,31.06-2.32,61.23-17.22,94.95-13.41,30.35-33.38,61.04-54.51,93.53-76.67,117.86-172.09,264.54-109.87,577.99l-2.99.59Z"/>
  <path class="cls-57" d="m341.57,1220.31c-29.47-141.58-28.91-262.09,1.73-368.41,26.42-91.7,70.36-157.23,109.12-215.04,44.34-66.13,79.36-118.37,72.68-184.82-7.25-72.13-63.71-153.75-183.07-264.64l2.08-2.24c62.27,57.85,107.16,107.67,137.22,152.3,27.93,41.46,43.24,78.84,46.8,114.27,3.12,31.01-2.51,61.01-17.7,94.41-13.67,30.06-33.98,60.35-55.48,92.42-78.66,117.32-176.55,263.32-110.39,581.13l-2.99.62Z"/>
  <path class="cls-54" d="m352.58,1221.87c-31.27-143.45-31.37-265.02-.33-371.68,26.78-91.99,71.78-157.2,111.5-214.73,45.08-65.31,80.69-116.9,74.11-183.27-3.46-34.88-18.7-71.9-46.6-113.19-30.22-44.72-75.44-94.82-138.22-153.15l2.08-2.24c62.96,58.49,108.32,108.76,138.68,153.68,28.19,41.72,43.6,79.2,47.11,114.6,3.07,30.97-2.71,60.82-18.2,93.94-13.93,29.79-34.58,59.7-56.44,91.37-76.33,110.59-180.88,262.04-110.7,584.03l-2.98.65Z"/>
  <path class="cls-64" d="m363.58,1223.43c-33.09-145.23-33.91-267.82-2.5-374.76,27.09-92.24,73.15-157.12,113.79-214.36,45.82-64.54,82.01-115.52,75.56-181.84-3.39-34.87-18.71-72.02-46.84-113.58-30.48-45.04-76.13-95.61-139.55-154.59l2.08-2.23c261.13,242.87,201.5,326.87,111.24,454.02-82.45,116.15-185.07,260.7-110.79,586.68l-2.98.68Z"/>
  <path class="cls-65" d="m374.58,1224.99c-34.96-146.94-36.53-270.47-4.8-377.65,27.37-92.45,74.45-157,115.99-213.95,46.54-63.81,83.31-114.22,77.02-180.54-3.31-34.88-18.68-72.18-47.01-114.03-30.71-45.38-76.75-96.43-140.75-156.08l2.08-2.23c64.17,59.81,110.36,111.04,141.2,156.6,28.62,42.28,44.16,80.05,47.52,115.45,2.94,30.97-3.19,60.58-19.27,93.18-14.46,29.31-35.76,58.52-58.32,89.44-84.26,115.53-189.13,259.31-110.68,589.1l-2.97.71Z"/>
  <path class="cls-62" d="m385.59,1226.56c-36.85-148.57-39.21-272.98-7.22-380.35,27.6-92.63,75.68-156.85,118.1-213.5,45.39-60.63,84.59-112.99,78.49-179.35-3.21-34.92-18.62-72.38-47.1-114.54-30.91-45.73-77.3-97.29-141.83-157.62l2.08-2.23c64.7,60.49,111.24,112.22,142.27,158.14,28.78,42.59,44.36,80.53,47.61,115.97,2.85,30.99-3.46,60.51-19.85,92.9-14.73,29.11-36.35,57.99-59.24,88.56-86.01,114.89-193.06,257.88-110.36,591.29l-2.96.73Z"/>
  <path class="cls-63" d="m396.59,1228.12c-38.77-150.12-41.96-275.36-9.74-382.87,27.8-92.77,76.85-156.65,120.12-213.02,93.88-122.28,155.9-203.07-109.94-452.59l2.09-2.22c65.18,61.18,112.03,113.43,143.23,159.73,28.92,42.92,44.5,81.04,47.64,116.54,2.74,31.03-3.75,60.47-20.45,92.67-15,28.92-36.93,57.49-60.15,87.74-87.7,114.23-196.85,256.4-109.84,593.26l-2.95.76Z"/>
  <path class="cls-60" d="m407.6,1229.68c-40.73-151.59-44.78-277.6-12.38-385.21,27.96-92.88,77.95-156.43,122.04-212.49,46.75-59.43,87.12-110.76,81.49-177.32-2.96-35.05-18.37-72.91-47.1-115.72-31.21-46.51-78.19-99.13-143.63-160.85l2.09-2.22c65.61,61.88,112.73,114.66,144.07,161.37,29.02,43.26,44.6,81.58,47.6,117.17,2.63,31.09-4.07,60.48-21.07,92.5-15.27,28.75-37.51,57.03-61.06,86.96-89.33,113.56-200.49,254.9-109.12,595.02l-2.95.79Z"/>
  <path class="cls-61" d="m418.6,1231.24c-42.71-152.99-47.66-279.7-15.13-387.37,28.09-92.96,78.98-156.17,123.88-211.94,47.42-58.89,88.37-109.75,83.02-176.46-2.82-35.15-18.19-73.23-47-116.4-31.32-46.93-78.54-100.1-144.36-162.53l2.1-2.21c65.99,62.59,113.35,115.92,144.8,163.05,29.1,43.61,44.64,82.16,47.5,117.84,2.5,31.16-4.41,60.51-21.73,92.38-15.54,28.6-38.09,56.6-61.96,86.24-90.89,112.88-204,253.37-108.19,596.58l-2.94.82Z"/>
  <path class="cls-136" d="m429.61,1232.81c-44.71-154.31-50.59-281.67-17.98-389.37,28.17-93.01,79.95-155.89,125.63-211.36,48.08-58.39,89.61-108.81,84.57-175.72-2.66-35.27-17.98-73.58-46.83-117.12-31.4-47.37-78.82-101.1-144.98-164.25l2.11-2.21c66.32,63.31,113.89,117.21,145.41,164.77,29.15,43.98,44.63,82.77,47.33,118.57,2.35,31.25-4.76,60.58-22.4,92.31-15.82,28.46-38.66,56.2-62.85,85.57-92.39,112.19-207.37,251.82-107.08,597.94l-2.93.85Z"/>
  <path class="cls-134" d="m440.61,1234.37c-46.74-155.56-53.58-283.52-20.93-391.19,28.22-93.04,80.85-155.58,127.29-210.76,48.74-57.92,90.84-107.94,86.13-175.07-2.48-35.41-17.73-73.98-46.6-117.89-31.45-47.83-79.04-102.13-145.49-166.01l2.11-2.2c66.61,64.04,114.34,118.52,145.92,166.54,29.17,44.36,44.58,83.4,47.1,119.35,2.2,31.35-5.14,60.68-23.1,92.3-16.1,28.34-39.24,55.84-63.74,84.95-93.82,111.5-210.59,250.25-105.77,599.11l-2.92.88Z"/>
  <path class="cls-135" d="m451.62,1235.93c-48.79-156.73-56.63-285.23-23.97-392.85,28.23-93.03,81.69-155.25,128.85-210.14,49.4-57.49,92.06-107.14,87.72-174.53-2.29-35.57-17.44-74.4-46.31-118.71-31.47-48.3-79.19-103.19-145.89-167.81l2.12-2.19c66.86,64.78,114.72,119.85,146.32,168.34,29.17,44.76,44.48,84.07,46.8,120.18,2.03,31.47-5.55,60.81-23.83,92.33-16.38,28.24-39.81,55.51-64.62,84.38-95.2,110.79-213.67,248.68-104.28,600.1l-2.91.91Z"/>
  <path class="cls-137" d="m462.62,1237.49c-50.85-157.83-59.72-286.82-27.11-394.35,28.2-93,82.46-154.9,130.33-209.5,50.05-57.09,93.27-106.4,89.32-174.08-2.09-35.75-17.12-74.86-45.96-119.57-31.47-48.79-79.29-104.28-146.19-169.65l2.13-2.18c67.07,65.53,115.03,121.2,146.62,170.18,29.14,45.17,44.33,84.76,46.45,121.05,4.02,68.93-39.58,118.67-90.08,176.27-96.51,110.09-216.61,247.1-102.61,600.91l-2.9.94Z"/>
  <path class="cls-141" d="m473.63,1239.06c-52.94-158.85-62.86-288.29-30.34-395.7,28.14-92.95,83.17-154.52,131.71-208.85,50.7-56.73,94.48-105.72,90.95-173.73-1.87-35.94-16.77-75.35-45.55-120.48-31.44-49.29-79.33-105.4-146.39-171.52l2.14-2.17c67.23,66.29,115.25,122.57,146.82,172.06,29.08,45.59,44.13,85.48,46.03,121.96,3.6,69.25-40.57,118.68-91.72,175.92-97.75,109.38-219.4,245.52-100.75,601.55l-2.89.96Z"/>
  <path class="cls-143" d="m484.64,1240.62c-55.04-159.81-66.04-289.63-33.66-396.89,28.05-92.87,83.81-154.14,133.01-208.19,51.34-56.4,95.68-105.11,92.59-173.46-1.63-36.15-16.38-75.87-45.09-121.42-31.39-49.81-79.3-106.54-146.49-173.43l2.15-2.16c67.35,67.06,115.41,123.96,146.92,173.96,29,46.02,43.9,86.22,45.55,122.91,3.14,69.61-41.59,118.75-93.38,175.65-98.93,108.68-222.05,243.94-98.73,602.03l-2.89.99Z"/>
  <path class="cls-142" d="m495.64,1242.18c-57.15-160.69-69.27-290.86-37.05-397.93,27.91-92.78,84.39-153.73,134.22-207.51,51.98-56.1,96.87-104.55,94.25-173.29-1.38-36.37-15.96-76.42-44.57-122.41-31.31-50.34-79.23-107.7-146.5-175.36l2.16-2.15c67.44,67.83,115.5,125.37,146.93,175.9,28.89,46.46,43.62,86.99,45.02,123.91,2.66,69.99-42.62,118.88-95.06,175.48-100.04,107.98-224.55,242.36-96.53,602.35l-2.88,1.02Z"/>
  <path class="cls-139" d="m506.65,1243.74c-59.27-161.51-72.53-291.97-40.53-398.83,27.75-92.66,84.9-153.32,135.34-206.83,52.61-55.83,98.05-104.06,95.93-173.19-1.12-36.62-15.51-76.99-43.99-123.43-31.2-50.89-79.09-108.89-146.41-177.33l2.18-2.14c67.48,68.6,115.51,126.79,146.84,177.87,28.76,46.91,43.3,87.77,44.44,124.93,2.16,70.4-43.68,119.05-96.76,175.38-101.1,107.28-226.91,240.8-94.17,602.52l-2.86,1.05Z"/>
  <path class="cls-140" d="m517.65,1245.31c-61.4-162.25-75.82-292.96-44.07-399.59,27.55-92.52,85.36-152.89,136.36-206.15,53.24-55.6,99.23-103.61,97.62-173.19-.85-36.87-15.03-77.59-43.36-124.49-31.07-51.44-78.9-110.1-146.23-179.32l2.19-2.13c67.49,69.39,115.46,128.22,146.65,179.87,28.61,47.37,42.93,88.58,43.79,126,.75,32.44-8.37,62.14-28.69,93.47-18.13,27.96-43.22,54.16-69.79,81.9-102.08,106.59-229.13,239.25-91.64,602.55l-2.85,1.08Z"/>
  <path class="cls-138" d="m528.66,1246.87c-142.95-366.55-13.99-499.14,89.62-605.68,53.87-55.39,100.39-103.23,99.33-173.26-.56-37.14-14.52-78.22-42.67-125.59-30.91-52.01-78.66-111.33-145.96-181.33l2.2-2.11c67.47,70.18,115.35,129.67,146.38,181.89,28.43,47.84,42.53,89.41,43.1,127.1.49,32.64-8.9,62.45-29.57,93.8-18.43,27.96-43.79,54.03-70.63,81.63-103,105.91-231.2,237.72-88.96,602.44l-2.84,1.11Z"/>
  <path class="cls-97" d="m539.67,1248.43c-65.69-163.55-82.49-294.62-51.37-400.7,27.05-92.19,86.08-152.01,138.16-204.78,54.49-55.21,101.55-102.89,101.05-173.41-.26-37.42-13.98-78.87-41.94-126.71-30.74-52.59-78.36-112.58-145.6-183.37l2.21-2.1c67.4,70.97,115.17,131.13,146.02,183.93,28.23,48.32,42.09,90.26,42.36,128.23.23,32.86-9.45,62.78-30.47,94.17-18.73,27.98-44.35,53.93-71.46,81.4-103.86,105.24-233.12,236.21-86.13,602.2l-2.83,1.14Z"/>
  <path class="cls-94" d="m550.67,1249.99c-67.84-164.11-85.86-295.3-55.11-401.06,11.95-41.11,31.46-79.29,59.64-116.72,24.75-32.87,52.48-60.58,79.3-87.38,55.1-55.06,102.69-102.61,102.78-173.63.05-37.72-13.41-79.54-41.16-127.87-30.53-53.19-78.01-113.84-145.16-185.43l2.23-2.09c67.31,71.77,114.92,132.61,145.58,186,28.02,48.8,41.61,91.12,41.56,129.39-.04,33.08-10.02,63.13-31.39,94.58-19.04,28.01-44.9,53.85-72.28,81.21-104.66,104.57-234.91,234.72-83.16,601.84l-2.82,1.17Z"/>
  <path class="cls-95" d="m561.68,1251.56c-19.05-44.8-34.55-87.77-46.06-127.71-10.9-37.81-18.56-74.06-22.77-107.75-3.95-31.64-4.99-62.04-3.08-90.36,1.77-26.28,6.14-51.68,13-75.48,11.81-41.02,31.31-79.08,59.64-116.34,24.88-32.74,52.89-60.36,79.98-87.07,55.71-54.93,103.83-102.38,104.53-173.93.77-78.83-58-179.42-184.95-316.56l2.24-2.07c67.17,72.57,114.62,134.09,145.05,188.09,27.78,49.29,41.1,92.01,40.72,130.58-.33,33.31-10.6,63.5-32.33,95.02-19.34,28.05-45.46,53.79-73.1,81.06-105.39,103.92-236.56,233.26-80.04,601.35l-2.81,1.19Z"/>
  <path class="cls-98" d="m572.69,1253.12c-19.63-44.91-35.65-87.96-47.61-127.94-11.33-37.86-19.37-74.13-23.89-107.82-4.25-31.64-5.54-62.03-3.83-90.31,1.59-26.25,5.82-51.6,12.58-75.35,11.65-40.93,31.14-78.87,59.59-115.97,25.01-32.61,53.28-60.15,80.63-86.78,56.31-54.84,104.95-102.19,106.27-174.3,1.46-79.58-56.83-181.23-183.47-319.87l2.25-2.06c67.01,73.37,114.25,135.58,144.43,190.19,27.52,49.79,40.55,92.9,39.83,131.8-.62,33.55-11.19,63.89-33.29,95.49-19.65,28.1-46,53.76-73.91,80.94-106.06,103.28-238.06,231.82-76.8,600.75l-2.8,1.22Z"/>
  <path class="cls-96" d="m583.7,1254.68c-20.21-45-36.76-88.11-49.17-128.12-11.76-37.89-20.18-74.18-25.03-107.86-4.55-31.64-6.1-62-4.59-90.23,1.4-26.22,5.49-51.52,12.14-75.2,11.48-40.84,30.94-78.64,59.5-115.58,25.12-32.49,53.65-59.94,81.24-86.5,56.91-54.76,106.05-102.06,108.03-174.73,2.18-80.36-55.6-183.07-181.85-323.22l2.27-2.04c66.81,74.17,113.83,137.08,143.74,192.3,27.24,50.3,39.96,93.82,38.9,133.04-.92,33.8-11.8,64.3-34.25,95.99-19.95,28.16-46.55,53.76-74.71,80.86-106.67,102.65-239.43,230.41-73.42,600.04l-2.78,1.25Z"/>
  <path class="cls-102" d="m594.7,1256.24c-20.79-45.08-37.86-88.23-50.73-128.25-12.2-37.92-21-74.21-26.18-107.86-4.86-31.63-6.67-61.96-5.37-90.14,1.21-26.18,5.14-51.43,11.69-75.04,11.3-40.74,30.71-78.42,59.36-115.19,25.21-32.36,53.98-59.75,81.81-86.23,57.49-54.72,107.15-101.97,109.78-175.23,2.92-81.16-54.31-184.95-180.12-326.61l2.28-2.03c66.59,74.98,113.35,138.58,142.97,194.44,26.94,50.81,39.34,94.74,37.92,134.31-1.23,34.06-12.42,64.73-35.23,96.53-20.26,28.23-47.09,53.77-75.5,80.81-54.04,51.43-115.3,109.73-140.34,200.02-28.73,103.6-5.69,234.18,70.42,399.21l-2.77,1.28Z"/>
  <path class="cls-101" d="m605.71,1257.8c-21.37-45.14-38.96-88.32-52.29-128.35-12.63-37.94-21.83-74.22-27.33-107.84-5.17-31.61-7.24-61.9-6.16-90.02,1.01-26.14,4.78-51.33,11.21-74.87,11.1-40.63,30.46-78.18,59.18-114.8,25.29-32.24,54.3-59.56,82.35-85.98,55.66-52.42,108.22-101.93,111.54-175.8,3.68-81.99-52.96-186.86-178.27-330.03l2.3-2.01c125.86,143.8,182.74,249.36,179.02,332.18-1.54,34.33-13.05,65.18-36.22,97.09-20.56,28.32-47.62,53.81-76.27,80.79-54.41,51.24-116.08,109.33-140.68,199.35-28.19,103.19-3.86,233.69,74.39,398.97l-2.76,1.31Z"/>
  <path class="cls-100" d="m616.72,1259.37c-21.95-45.18-40.06-88.38-53.85-128.4-13.07-37.94-22.66-74.2-28.49-107.78-5.49-31.58-7.83-61.82-6.97-89.89.8-26.09,4.41-51.22,10.72-74.69,10.89-40.52,30.18-77.94,58.96-114.4,25.35-32.12,54.58-59.38,82.84-85.74,56.2-52.42,109.28-101.93,113.3-176.43,2.14-39.73-9.48-84.01-35.52-135.37-28.86-56.91-74.91-121.72-140.79-198.12l2.31-1.99c66.04,76.59,112.22,141.59,141.2,198.73,26.29,51.84,38.02,96.63,35.84,136.91-1.87,34.6-13.69,65.64-37.23,97.69-20.86,28.41-48.15,53.86-77.04,80.81-57.43,53.56-116.81,108.95-140.94,198.7-27.63,102.76-1.99,233.15,78.38,398.63l-2.74,1.33Z"/>
  <path class="cls-99" d="m627.73,1260.93c-22.52-45.21-41.16-88.42-55.4-128.41-13.51-37.93-23.48-74.16-29.65-107.69-5.8-31.55-8.42-61.74-7.78-89.73.59-26.04,4.03-51.1,10.21-74.49,10.68-40.41,29.88-77.7,58.7-114,25.41-32,54.84-59.2,83.3-85.51,56.73-52.44,110.32-101.97,115.05-177.11,2.52-40.11-8.74-84.82-34.44-136.7-28.51-57.56-74.24-123.06-139.79-200.27l2.33-1.97c65.72,77.39,111.58,143.11,140.2,200.89,25.94,52.37,37.31,97.59,34.75,138.24-1.16,18.42-5.11,35.69-12.07,52.78-6.24,15.31-14.8,30.2-26.17,45.53-21.17,28.52-48.67,53.94-77.79,80.85-57.76,53.39-117.49,108.59-141.13,198.05-27.04,102.32-.08,232.57,82.41,398.19l-2.73,1.36Z"/>
  <path class="cls-103" d="m638.73,1262.49c-23.09-45.23-42.25-88.42-56.95-128.39-13.95-37.91-24.32-74.11-30.82-107.58-6.12-31.5-9.02-61.63-8.61-89.56.38-25.98,3.64-50.97,9.68-74.29,10.45-40.29,29.55-77.45,58.4-113.6,25.44-31.88,55.07-59.04,83.73-85.31,57.26-52.48,111.34-102.06,116.8-177.86,2.91-40.49-7.99-85.64-33.32-138.05-28.14-58.2-73.52-124.42-138.72-202.42l2.34-1.96c65.37,78.2,110.88,144.62,139.13,203.05,25.57,52.9,36.57,98.56,33.62,139.59-1.34,18.57-5.46,35.97-12.6,53.18-6.4,15.41-15.11,30.38-26.65,45.77-21.47,28.63-49.18,54.04-78.53,80.93-58.07,53.23-118.11,108.26-141.24,197.42-26.42,101.86,1.87,231.94,86.46,397.66l-2.72,1.39Z"/>
  <path class="cls-114" d="m649.74,1264.05c-23.65-45.23-43.33-88.4-58.49-128.32-14.38-37.88-25.15-74.03-31.99-107.43-6.44-31.45-9.62-61.52-9.45-89.37.16-25.92,3.24-50.84,9.14-74.07,10.21-40.17,29.2-77.2,58.06-113.2,25.47-31.77,55.28-58.89,84.12-85.11,57.77-52.55,112.34-102.18,118.54-178.66,3.31-40.88-7.21-86.48-32.17-139.41-27.75-58.86-72.76-125.78-137.59-204.58l2.36-1.94c32.82,39.9,61.17,77.62,84.24,112.12,22.15,33.11,40.23,64.44,53.75,93.1,25.19,53.43,35.81,99.54,32.45,140.96-6.29,77.68-61.29,127.71-119.53,180.67-58.35,53.07-118.69,107.95-141.27,196.81-25.77,101.4,3.84,231.26,90.53,397.03l-2.7,1.41Z"/>
  <path class="cls-117" d="m660.75,1265.61c-24.22-45.22-44.41-88.36-60.02-128.22-14.82-37.84-25.98-73.93-33.16-107.27-6.77-31.4-10.23-61.39-10.3-89.16-.06-25.85,2.83-50.7,8.59-73.85,9.96-40.04,28.83-76.94,57.69-112.8,25.48-31.66,55.47-58.75,84.47-84.94,58.28-52.63,113.32-102.35,120.27-179.52,3.71-41.27-6.42-87.33-30.99-140.79-27.34-59.51-71.95-127.14-136.38-206.73l2.37-1.92c32.63,40.31,60.77,78.43,83.65,113.3,21.95,33.46,39.82,65.11,53.13,94.08,24.79,53.96,35.02,100.52,31.25,142.34-7.05,78.36-62.53,128.46-121.26,181.51-58.61,52.93-119.21,107.67-141.24,196.21-25.1,100.92,5.85,230.55,94.62,396.31l-2.69,1.44Z"/>
  <path class="cls-118" d="m671.76,1267.17c-24.78-45.19-45.48-88.29-61.55-128.08-15.26-37.8-26.81-73.82-34.33-107.07-7.09-31.33-10.84-61.26-11.15-88.93-.29-25.78,2.41-50.55,8.02-73.62,9.7-39.92,28.44-76.68,57.27-112.4,25.48-31.56,55.63-58.62,84.78-84.78,58.77-52.74,114.27-102.56,121.98-180.43,4.12-41.68-5.61-88.19-29.77-142.19-26.92-60.17-71.11-128.5-135.11-208.89l2.39-1.9c32.41,40.72,60.34,79.24,83.01,114.49,21.73,33.8,39.4,65.78,52.49,95.06,24.38,54.5,34.2,101.51,30.02,143.74-7.82,79.05-63.76,129.25-122.98,182.4-58.84,52.81-119.69,107.41-141.13,195.63-24.41,100.43,7.88,229.81,98.72,395.52l-2.68,1.47Z"/>
  <path class="cls-123" d="m682.77,1268.73c-25.33-45.16-46.55-88.19-63.06-127.91-15.69-37.74-27.64-73.69-35.51-106.85-7.42-31.27-11.46-61.11-12.01-88.69-.51-25.71,1.99-50.4,7.44-73.38,9.44-39.79,28.02-76.43,56.83-112.01,25.47-31.46,55.76-58.5,85.06-84.64,59.24-52.87,115.2-102.8,123.68-181.39,4.54-42.09-4.79-89.06-28.53-143.6-26.48-60.84-70.24-129.87-133.77-211.04l2.4-1.88c32.19,41.12,59.89,80.04,82.34,115.67,21.51,34.14,38.95,66.45,51.83,96.04,23.95,55.03,33.36,102.51,28.76,145.14-8.6,79.75-64.98,130.07-124.68,183.34-59.05,52.69-120.11,107.18-140.96,195.08-23.7,99.94,9.93,229.03,102.83,394.64l-2.66,1.49Z"/>
  <path class="cls-119" d="m693.78,1270.3c-25.88-45.11-47.6-88.08-64.56-127.71-16.12-37.67-28.46-73.54-36.67-106.61-7.75-31.19-12.08-60.95-12.88-88.44-.75-25.64,1.56-50.24,6.85-73.14,20.45-88.52,82.07-143.23,141.66-196.14,59.71-53.01,116.1-103.08,125.35-182.4,4.96-42.51-3.96-89.95-27.26-145.02-26.02-61.5-69.32-131.23-132.37-213.19l2.42-1.86c31.95,41.53,59.41,80.84,81.63,116.84,21.28,34.48,38.48,67.12,51.13,97.02,23.51,55.57,32.5,103.51,27.48,146.56-2.26,19.39-7.28,37.5-15.34,55.37-7.2,15.96-16.7,31.4-29.05,47.2-22.94,29.35-51.61,54.81-81.97,81.76-59.23,52.59-120.48,106.97-140.71,194.54-22.97,99.44,12.01,228.21,106.94,393.69l-2.65,1.52Z"/>
  <path class="cls-116" d="m704.78,1271.86c-26.42-45.05-48.64-87.94-66.05-127.47-16.55-37.6-29.29-73.38-37.84-106.35-8.07-31.11-12.7-60.78-13.75-88.17-.98-25.56,1.12-50.08,6.24-72.88,19.81-88.2,81.6-142.82,141.36-195.64,60.15-53.17,116.97-103.4,127.01-183.45,5.38-42.94-3.11-90.84-25.96-146.45-25.55-62.16-68.37-132.6-130.91-215.33l2.43-1.84c31.7,41.93,58.91,81.63,80.89,118.01,21.03,34.82,38,67.79,50.41,98,23.06,56.11,31.62,104.51,26.17,147.99-2.45,19.56-7.65,37.82-15.9,55.83-7.36,16.08-17.02,31.63-29.52,47.52-23.22,29.52-52.06,55.02-82.6,82.01-59.39,52.5-120.81,106.79-140.41,194.03-22.22,98.93,14.1,227.37,111.05,392.67l-2.63,1.54Z"/>
  <path class="cls-115" d="m715.79,1273.42c-26.96-44.98-49.68-87.77-67.53-127.21-16.98-37.52-30.1-73.2-39-106.07-8.4-31.03-13.32-60.6-14.62-87.89-1.22-25.48.68-49.91,5.63-72.63,19.16-87.88,81.1-142.42,141-195.18,60.59-53.36,117.81-103.76,128.64-184.56,5.81-43.37-2.25-91.74-24.65-147.89-25.06-62.83-67.39-133.96-129.39-217.45l2.45-1.82c31.43,42.32,58.38,82.42,80.11,119.17,20.78,35.15,37.49,68.45,49.67,98.97,22.6,56.64,30.72,105.52,24.84,149.42-2.64,19.73-8.03,38.15-16.46,56.31-7.52,16.21-17.33,31.86-29.99,47.85-23.5,29.7-52.5,55.24-83.21,82.28-59.53,52.43-121.09,106.64-140.03,193.54-21.46,98.41,16.21,226.5,115.16,391.57l-2.62,1.57Z"/>
  <path class="cls-121" d="m726.8,1274.98c-27.49-44.89-50.7-87.59-68.99-126.92-17.41-37.43-30.92-73.01-40.16-105.77-8.73-30.94-13.94-60.41-15.5-87.6-1.45-25.39.23-49.74,5.01-72.36,18.49-87.55,80.56-142.04,140.58-194.74,61-53.56,118.62-104.15,130.25-185.71,13.15-92.28-34.87-209.5-151.12-368.9l2.47-1.8c31.15,42.72,57.83,83.2,79.3,120.32,20.52,35.49,36.97,69.12,48.9,99.95,22.12,57.18,29.8,106.53,23.48,150.86-2.84,19.91-8.4,38.48-17.01,56.79-7.68,16.33-17.64,32.1-30.45,48.2-23.77,29.88-52.93,55.48-83.8,82.58-59.65,52.37-121.32,106.51-139.6,193.07-20.68,97.9,18.33,225.6,119.25,390.42l-2.6,1.59Z"/>
  <path class="cls-122" d="m737.81,1276.54c-28.01-44.8-51.71-87.39-70.43-126.6-17.83-37.33-31.72-72.81-41.31-105.45-9.05-30.84-14.56-60.21-16.38-87.3-1.69-25.31-.22-49.56,4.38-72.1,17.81-87.23,79.98-141.67,140.09-194.32,61.4-53.78,119.4-104.57,131.82-186.9,14.07-93.3-32.99-211.65-148.13-372.45l2.48-1.78c30.86,43.1,57.26,83.97,78.45,121.46,20.25,35.82,36.44,69.77,48.11,100.91,21.63,57.71,28.86,107.54,22.11,152.31-3.03,20.08-8.78,38.82-17.57,57.29-7.84,16.46-17.95,32.34-30.9,48.55-24.04,30.07-54.7,56.93-84.36,82.91-120.59,105.61-245.28,214.81-15.78,581.84l-2.59,1.62Z"/>
  <path class="cls-120" d="m748.82,1278.1c-235.1-368.32-109.61-478.01,11.74-584.1,61.79-54.01,120.14-105.03,133.36-188.14,7.11-44.69.38-94.49-20.57-152.24-23.52-64.82-64.24-138-124.49-223.75l2.5-1.75c30.56,43.49,56.66,84.73,77.57,122.59,19.97,36.15,35.88,70.43,47.29,101.88,21.13,58.25,27.91,108.54,20.72,153.76-3.22,20.26-9.15,39.16-18.12,57.79-8,16.6-18.25,32.6-31.35,48.91-24.3,30.27-55.11,57.21-84.9,83.25-59.81,52.28-121.65,106.35-138.57,192.23-19.08,96.85,22.59,223.75,127.39,387.93l-2.57,1.64Z"/>
  <path class="cls-124" d="m759.83,1279.66c-29.04-44.58-53.69-86.94-73.26-125.88-18.66-37.12-33.32-72.36-43.58-104.75-9.7-30.64-15.8-59.79-18.13-86.66-2.18-25.13-1.13-49.2,3.11-71.55,3.95-20.82,10.52-40.23,20.1-59.35,8.52-17.01,19.24-33.38,32.76-50.04,25.06-30.89,56.09-57.98,86.1-84.18,62.15-54.27,120.85-105.52,134.87-189.42,15.72-94.06-30.71-218.2-141.93-379.51l2.51-1.73c30.25,43.87,56.04,85.48,76.66,123.7,19.68,36.48,35.31,71.07,46.46,102.83,20.63,58.78,26.94,109.55,19.31,155.22-3.42,20.44-9.52,39.51-18.67,58.3-8.15,16.73-18.55,32.85-31.78,49.29-24.55,30.48-55.49,57.5-85.42,83.63-59.85,52.26-121.75,106.31-137.96,191.84-18.26,96.33,24.73,222.79,131.43,386.61l-2.56,1.67Z"/>
  <path class="cls-125" d="m770.83,1281.22c-29.54-44.46-54.66-86.68-74.65-125.48-19.07-37-34.11-72.12-44.7-104.38-19.58-59.64-25-111.19-16.55-157.61,3.78-20.74,10.21-40.09,19.67-59.14,8.42-16.96,19.06-33.28,32.52-49.91,24.96-30.82,56.05-57.96,86.12-84.2,59.74-52.14,121.52-106.05,136.34-190.73,16.64-95.09-28.74-220.38-138.74-383.01l2.53-1.71c29.92,44.24,55.39,86.23,75.72,124.8,19.39,36.8,34.73,71.72,45.6,103.78,20.11,59.3,25.96,110.55,17.89,156.67-3.61,20.63-9.9,39.86-19.22,58.81-8.3,16.87-18.84,33.12-32.21,49.67-24.8,30.7-55.86,57.81-85.9,84.02-59.88,52.26-121.8,106.29-137.31,191.49-17.44,95.8,26.87,221.81,135.44,385.24l-2.54,1.69Z"/>
  <path class="cls-127" d="m781.84,1282.78c-30.04-44.33-55.61-86.41-76.02-125.06-19.47-36.88-34.89-71.87-45.81-104-20.21-59.43-26.13-110.78-18.07-156.99,3.6-20.67,9.89-39.95,19.23-58.93,8.31-16.91,18.87-33.19,32.27-49.78,24.85-30.77,55.99-57.95,86.11-84.23,60.05-52.41,122.15-106.61,137.77-192.09,17.56-96.13-26.75-222.55-135.48-386.49l2.54-1.69c29.58,44.6,54.73,86.96,74.75,125.88,19.09,37.12,34.14,72.35,44.73,104.72,19.58,59.83,24.97,111.55,16.46,158.12-3.8,20.81-10.27,40.22-19.76,59.33-8.45,17.01-19.13,33.39-32.64,50.07-25.04,30.92-56.22,58.13-86.37,84.44-59.89,52.27-121.82,106.31-136.61,191.18-16.61,95.28,29,220.83,139.43,383.82l-2.53,1.71Z"/>
  <path class="cls-128" d="m792.85,1284.34c-30.52-44.2-56.55-86.13-77.37-124.63-19.87-36.75-35.65-71.61-46.91-103.6-20.84-59.22-27.25-110.37-19.59-156.37,3.43-20.6,9.57-39.81,18.78-58.73,8.2-16.86,18.67-33.1,32.01-49.67,24.73-30.72,55.92-57.95,86.07-84.29,60.35-52.7,122.74-107.2,139.16-193.48,18.48-97.18-24.75-224.73-132.17-389.94l2.56-1.66c29.23,44.96,54.05,87.67,73.75,126.95,18.78,37.43,33.53,72.98,43.84,105.65,9.76,30.9,15.88,60.31,18.21,87.4,2.17,25.34,1.1,49.62-3.19,72.17-3.99,20.99-10.63,40.57-20.3,59.86-8.6,17.15-19.41,33.66-33.05,50.47-25.27,31.15-56.55,58.47-86.8,84.88-62.63,54.7-121.79,106.36-135.86,190.89-15.77,94.75,31.13,219.83,143.37,382.36l-2.51,1.73Z"/>
  <path class="cls-130" d="m803.86,1285.9c-31-44.05-57.47-85.83-78.69-124.17-20.26-36.62-36.41-71.33-48-103.19-21.46-59-28.36-109.94-21.11-155.74,3.25-20.52,9.24-39.67,18.32-58.53,8.09-16.81,18.47-33.02,31.73-49.55,24.61-30.67,55.82-57.97,86.01-84.37,60.62-53.01,123.3-107.82,140.5-194.91,19.4-98.23-22.73-226.89-128.8-393.35l2.57-1.64c28.88,45.31,53.34,88.38,72.72,128,18.46,37.74,32.9,73.6,42.93,106.57,9.48,31.17,15.34,60.84,17.42,88.19,1.94,25.57.65,50.07-3.85,72.83-4.18,21.18-11,40.93-20.83,60.39-8.74,17.3-19.68,33.94-33.45,50.88-25.49,31.38-56.87,58.82-87.21,85.35-62.6,54.74-121.72,106.45-135.06,190.64-7.17,45.28-.31,95.72,20.96,154.22,23.88,65.65,65.2,139.79,126.32,226.64l-2.5,1.76Z"/>
  <path class="cls-129" d="m814.87,1287.45c-31.47-43.9-58.38-85.51-79.99-123.69-20.65-36.48-37.16-71.05-49.07-102.77-22.07-58.77-29.47-109.51-22.62-155.11,3.07-20.45,8.92-39.54,17.86-58.34,7.98-16.77,18.26-32.94,31.45-49.45,24.47-30.64,55.71-58.01,85.92-84.47,122.89-107.68,249.97-219.02,16.4-593.11l2.59-1.62c28.51,45.66,52.62,89.07,71.66,129.03,18.14,38.05,32.27,74.21,42.01,107.47,9.2,31.43,14.8,61.37,16.63,88.98,1.71,25.79.19,50.52-4.51,73.49-18.19,88.91-81.52,144.4-142.77,198.06-62.54,54.8-121.62,106.56-134.22,190.42-14.28,95.02,33.75,215.56,151.15,379.33l-2.48,1.78Z"/>
  <path class="cls-126" d="m825.88,1289.01c-31.93-43.74-59.27-85.19-81.27-123.2-21.03-36.34-37.9-70.77-50.13-102.33-22.68-58.55-30.57-109.07-24.13-154.47,2.89-20.38,8.58-39.4,17.39-58.15,7.86-16.73,18.05-32.87,31.16-49.36,24.33-30.61,54.19-56.83,85.8-84.6,61.09-53.67,124.27-109.16,143.04-197.88,21.22-100.34-18.66-231.2-121.93-400.07l2.6-1.59c28.13,45.99,51.87,89.74,70.58,130.03,17.81,38.35,31.62,74.81,41.07,108.37,8.92,31.7,14.25,61.89,15.83,89.75,1.48,26.02-.26,50.96-5.16,74.14-18.98,89.71-82.54,145.54-144.01,199.54-62.47,54.88-121.48,106.71-133.34,190.25-13.42,94.5,35.82,214.54,154.97,377.77l-2.46,1.8Z"/>
  <path class="cls-132" d="m836.89,1290.57c-32.37-43.57-60.14-84.85-82.52-122.69-21.41-36.19-38.62-70.47-51.17-101.89-23.28-58.31-31.66-108.63-25.62-153.83,2.71-20.31,8.25-39.27,16.92-57.97,7.74-16.69,17.83-32.8,30.85-49.27,24.18-30.58,54.04-56.89,85.65-84.75,61.3-54.02,124.69-109.88,144.23-199.41,22.12-101.4-16.61-233.34-118.43-403.37l2.62-1.57c27.74,46.32,51.11,90.4,69.48,131.02,17.47,38.64,30.97,75.4,40.12,109.25,8.64,31.95,13.69,62.41,15.02,90.52,1.24,26.24-.71,51.41-5.82,74.8-19.75,90.51-83.52,146.71-145.19,201.05-62.38,54.97-121.3,106.89-132.42,190.11-5.97,44.66,2.35,94.48,25.43,152.29,25.83,64.69,69.43,137.92,133.3,223.89l-2.45,1.82Z"/>
  <path class="cls-133" d="m847.9,1292.13c-32.81-43.4-60.99-84.5-83.74-122.16-21.78-36.04-39.34-70.17-52.19-101.44-23.87-58.08-32.74-108.18-27.11-153.19,2.53-20.24,7.91-39.15,16.45-57.8,7.62-16.65,17.61-32.74,30.54-49.2,24.03-30.57,53.88-56.97,85.49-84.93,61.49-54.39,125.06-110.62,145.36-200.98,23.02-102.46-14.57-235.47-114.9-406.61l2.63-1.54c27.34,46.64,50.33,91.04,68.35,131.98,17.13,38.93,30.3,75.97,39.15,110.11,8.35,32.21,13.13,62.92,14.22,91.28,1.01,26.46-1.17,51.85-6.47,75.46-20.51,91.32-84.47,147.89-146.32,202.59-62.27,55.08-121.09,107.11-131.47,190.01-5.57,44.47,3.23,94.07,26.9,151.65,26.46,64.36,70.79,137.28,135.54,222.92l-2.43,1.84Z"/>
  <path class="cls-131" d="m858.9,1293.69c-33.24-43.22-61.82-84.14-84.94-121.62-22.14-35.89-40.04-69.86-53.2-100.99-24.46-57.84-33.81-107.74-28.58-152.55,2.35-20.18,7.58-39.03,15.97-57.63,7.49-16.61,17.38-32.69,30.23-49.13,23.87-30.56,53.71-57.06,85.29-85.13,61.65-54.77,125.39-111.4,146.44-202.57,23.9-103.52-12.52-237.57-111.33-409.81l2.65-1.52c26.93,46.94,49.54,91.66,67.19,132.91,16.78,39.21,29.62,76.54,38.17,110.96,8.06,32.46,12.57,63.43,13.41,92.04.78,26.68-1.62,52.29-7.12,76.11-21.27,92.12-85.38,149.08-147.39,204.17-62.15,55.21-120.84,107.36-130.48,189.96-5.17,44.27,4.11,93.67,28.36,151,27.08,64.03,72.13,136.62,137.74,221.93l-2.42,1.86Z"/>
  <path class="cls-89" d="m869.91,1295.25c-33.66-43.04-62.63-83.77-86.1-121.07-22.49-35.73-40.72-69.55-54.18-100.52-25.03-57.6-34.86-107.29-30.03-151.91,9.03-83.47,68.02-136.13,130.47-191.89,61.78-55.16,125.67-112.2,147.46-204.2,24.77-104.58-10.47-239.66-107.74-412.95l2.66-1.49c26.52,47.24,48.73,92.26,66.02,133.82,16.43,39.48,28.94,77.09,37.18,111.78,7.77,32.71,12.01,63.92,12.6,92.78.55,26.9-2.06,52.72-7.76,76.76-9.86,41.62-29.29,79.95-59.41,117.18-26.64,32.92-58.33,61.22-88.98,88.59-62,55.36-120.57,107.64-129.47,189.95-4.77,44.08,4.98,93.27,29.8,150.36,27.68,63.69,73.44,135.96,139.89,220.93l-2.4,1.88Z"/>
  <path class="cls-88" d="m880.92,1296.8c-34.07-42.85-63.42-83.4-87.24-120.5-22.84-35.57-41.39-69.23-55.15-100.05-25.6-57.35-35.89-106.83-31.47-151.27,8.28-83.19,67.12-136.02,129.42-191.95,61.9-55.57,125.9-113.04,148.41-205.85,25.62-105.64-8.43-241.73-104.12-416.03l2.68-1.47c26.09,47.53,47.9,92.85,64.82,134.7,16.07,39.75,28.25,77.63,36.18,112.6,7.48,32.95,11.45,64.41,11.79,93.51.32,27.11-2.5,53.16-8.39,77.41-10.18,41.97-29.86,80.64-60.18,118.2-26.79,33.2-58.5,61.67-89.16,89.2-61.84,55.52-120.26,107.97-128.42,189.98-4.37,43.9,5.84,92.87,31.22,149.73,28.28,63.35,74.72,135.28,141.99,219.9l-2.39,1.9Z"/>
  <path class="cls-87" d="m891.93,1298.36c-34.46-42.66-64.19-83.01-88.35-119.93-23.17-35.41-42.05-68.91-56.09-99.58-26.16-57.11-36.91-106.38-32.89-150.64,7.54-82.92,66.22-135.93,128.34-192.05,61.99-56,126.08-113.9,149.31-207.53,26.46-106.7-6.4-243.77-100.48-419.04l2.69-1.44c25.66,47.8,47.06,93.41,63.61,135.54,15.71,40.01,27.55,78.15,35.18,113.39,7.19,33.19,10.88,64.89,10.97,94.24.09,27.33-2.94,53.59-9.01,78.05-10.5,42.32-30.42,81.32-60.91,119.23-26.93,33.48-58.64,62.13-89.31,89.83-61.67,55.71-119.92,108.33-127.35,190.06-3.97,43.72,6.7,92.49,32.63,149.1,28.86,63.01,75.98,134.6,144.04,218.86l-2.37,1.92Z"/>
  <path class="cls-84" d="m902.94,1299.92c-34.85-42.47-64.93-82.62-89.42-119.35-23.5-35.25-42.69-68.59-57.01-99.1-26.7-56.86-37.92-105.93-34.29-150.02,6.8-82.66,65.3-135.87,127.24-192.2,62.05-56.43,126.21-114.79,150.13-209.24,27.29-107.75-4.38-245.79-96.82-421.99l2.7-1.42c25.22,48.07,46.2,93.95,62.37,136.36,15.35,40.26,26.84,78.66,34.16,114.16,6.89,33.42,10.31,65.36,10.17,94.95-.14,27.54-3.38,54.01-9.63,78.69-10.81,42.67-30.96,82.01-61.62,120.26-27.06,33.77-58.76,62.6-89.42,90.48-61.48,55.92-119.55,108.74-126.25,190.19-3.58,43.54,7.54,92.11,34.01,148.47,29.43,62.68,77.2,133.92,146.03,217.81l-2.36,1.94Z"/>
  <path class="cls-85" d="m913.95,1301.48c-35.22-42.27-65.66-82.22-90.46-118.75-23.82-35.08-43.31-68.26-57.91-98.62-27.23-56.61-38.9-105.49-35.67-149.4,1.46-19.87,5.9-38.48,13.56-56.9,6.86-16.49,16.2-32.5,28.55-48.96,22.99-30.63,52.63-57.79,84.01-86.54,62.09-56.89,126.29-115.71,150.89-210.97,28.09-108.8-2.38-247.77-93.15-424.86l2.72-1.39c24.77,48.32,45.33,94.46,61.12,137.15,14.98,40.5,26.13,79.16,33.14,114.9,6.6,33.65,9.75,65.82,9.36,95.64-.36,27.74-3.81,54.43-10.23,79.33-11.11,43.02-31.48,82.7-62.29,121.31-27.18,34.06-58.86,63.08-89.49,91.15-61.28,56.15-119.16,109.18-125.14,190.37-3.19,43.37,8.38,91.74,35.37,147.86,29.98,62.34,78.39,133.23,147.97,216.74l-2.34,1.95Z"/>
  <path class="cls-86" d="m924.96,1303.03c-35.58-42.07-66.36-81.82-91.47-118.16-24.14-34.92-43.91-67.93-58.78-98.13-27.75-56.37-39.86-105.04-37.02-148.8,1.29-19.82,5.57-38.39,13.08-56.78,6.73-16.47,15.96-32.49,28.2-48.97,22.8-30.67,52.38-57.99,83.69-86.91,62.1-57.35,126.32-116.66,151.58-212.73,28.88-109.84-.39-249.73-89.48-427.66l2.73-1.37c24.31,48.56,44.45,94.95,59.85,137.9,14.61,40.73,25.41,79.63,32.12,115.63,6.31,33.87,9.19,66.27,8.56,96.32-.58,27.95-4.23,54.85-10.83,79.95-11.4,43.37-31.99,83.39-62.93,122.35-27.28,34.35-58.93,63.58-89.53,91.84-61.06,56.39-118.74,109.66-124,190.61-2.81,43.21,9.2,91.37,36.71,147.25,30.52,62,79.54,132.54,149.85,215.67l-2.33,1.97Z"/>
  <path class="cls-92" d="m935.96,1304.59c-35.93-41.86-67.03-81.41-92.45-117.55-24.44-34.75-44.5-67.6-59.63-97.65-28.26-56.12-40.8-104.6-38.35-148.2,1.11-19.77,5.24-38.3,12.6-56.67,6.6-16.46,15.71-32.48,27.85-48.98,22.6-30.72,52.11-58.21,83.36-87.31,62.09-57.83,126.29-117.63,152.2-214.51,29.65-110.88,1.58-251.65-85.8-430.37l2.74-1.34c23.85,48.78,43.56,95.42,58.57,138.62,14.23,40.95,24.69,80.09,31.09,116.33,6.01,34.08,8.62,66.71,7.76,96.99-.8,28.15-4.64,55.26-11.41,80.57-11.69,43.71-32.47,84.08-63.53,123.4-27.37,34.65-58.97,64.09-89.53,92.55-60.84,56.67-118.3,110.19-122.85,190.9-2.43,43.05,10.01,91.02,38.02,146.66,31.05,61.66,80.66,131.85,151.67,214.59l-2.32,1.99Z"/>
  <path class="cls-90" d="m946.97,1306.15c-71.85-82.53-122.17-152.57-153.84-214.11-28.76-55.88-41.72-104.16-39.64-147.62.94-19.72,4.91-38.22,12.13-56.57,6.47-16.45,15.47-32.48,27.5-49.01,22.41-30.78,51.84-58.45,83.01-87.74,59.16-55.61,126.21-118.64,152.74-216.31,30.39-111.9,3.53-253.54-82.12-433l2.75-1.31c23.38,49,42.65,95.86,57.27,139.29,13.86,41.17,23.97,80.53,30.05,117,5.72,34.29,8.06,67.14,6.97,97.64-1.02,28.35-5.05,55.66-11.98,81.18-11.96,44.05-32.93,84.76-64.1,124.46-27.45,34.96-58.99,64.61-89.49,93.28-60.6,56.96-117.83,110.76-121.68,191.24-2.05,42.9,10.8,90.68,39.31,146.07,31.56,61.32,81.75,131.16,153.43,213.5l-2.3,2Z"/>
  <path class="cls-91" d="m957.98,1307.7c-72.5-82.13-123.38-151.8-155.54-213.01-29.24-55.63-42.62-103.73-40.91-147.05.78-19.67,4.59-38.15,11.66-56.48,6.35-16.45,15.23-32.49,27.15-49.05,22.21-30.85,51.56-58.71,82.64-88.21,59.1-56.09,126.08-119.66,153.21-218.13,31.11-112.92,5.45-255.39-78.45-435.55l2.77-1.29c22.91,49.19,41.74,96.28,55.96,139.94,13.48,41.37,23.24,80.95,29.02,117.65,5.43,34.49,7.51,67.56,6.18,98.28-1.23,28.54-5.45,56.06-12.54,81.79-12.23,44.39-33.37,85.45-64.63,125.51-27.52,35.27-58.98,65.14-89.42,94.02-60.34,57.27-117.34,111.37-120.51,191.65-3.51,88.97,58.67,202.7,195.69,357.92l-2.29,2.02Z"/>
  <path class="cls-93" d="m968.99,1309.26c-73.12-81.72-124.54-151.04-157.18-211.91-29.7-55.39-43.49-103.31-42.15-146.49.61-19.63,4.27-38.08,11.2-56.41,6.22-16.45,14.98-32.51,26.79-49.11,22.01-30.93,51.28-59,82.26-88.71,123.32-118.26,263.09-252.29,78.81-657.97l2.78-1.26c22.43,49.38,40.81,96.66,54.64,140.54,13.1,41.56,22.51,81.35,27.98,118.27,5.14,34.69,6.96,67.96,5.41,98.89-1.44,28.73-5.84,56.45-13.08,82.38-12.49,44.73-33.79,86.13-65.12,126.57-27.57,35.58-58.95,65.68-89.3,94.78-62.69,60.12-116.83,112.03-119.32,192.12-2.75,88.6,60.34,201.81,198.55,356.27l-2.27,2.03Z"/>
  <path class="cls-105" d="m980,1310.81c-73.72-81.31-125.64-150.27-158.74-210.82-30.15-55.16-44.33-102.9-43.35-145.95.45-19.59,3.96-38.03,10.75-56.35,6.09-16.45,14.74-32.54,26.44-49.18,21.81-31.02,50.98-59.3,81.86-89.24,117.22-113.63,263.1-255.06,82.78-662.18l2.79-1.24c21.94,49.55,39.88,97.02,53.31,141.1,12.72,41.74,21.78,81.73,26.94,118.86,4.85,34.87,6.41,68.35,4.64,99.49-1.65,28.92-6.22,56.83-13.61,82.97-12.73,45.07-34.18,86.81-65.57,127.63-27.6,35.9-58.89,66.23-89.15,95.56-62.4,60.5-116.3,112.74-118.12,192.65-2.01,88.25,61.95,200.94,201.3,354.65l-2.26,2.05Z"/>
  <path class="cls-112" d="m991,1312.37c-74.29-80.9-126.7-149.5-160.24-209.72-30.59-54.92-45.15-102.49-44.52-145.43.29-19.56,3.66-37.98,10.3-56.3,5.96-16.46,14.5-32.57,26.08-49.27,21.6-31.12,50.67-59.63,81.45-89.81,117.16-114.89,262.97-257.87,86.64-666.3l2.8-1.21c21.45,49.7,38.94,97.35,51.97,141.62,12.33,41.91,21.05,82.09,25.91,119.42,4.56,35.05,5.87,68.72,3.88,100.07-1.85,29.1-6.6,57.2-14.12,83.54-12.97,45.4-34.55,87.49-65.98,128.69-27.63,36.22-58.81,66.79-88.96,96.36-62.11,60.9-115.74,113.5-116.92,193.24-1.29,87.92,63.51,200.1,203.95,353.04l-2.25,2.06Z"/>
  <path class="cls-106" d="m1002.01,1313.92c-74.82-80.49-127.7-148.73-161.66-208.63-31-54.69-45.93-102.09-45.65-144.93.25-36.99,11.56-70.56,35.58-105.64,21.4-31.24,50.36-59.98,81.03-90.42,117.04-116.16,262.7-260.72,90.41-670.33l2.81-1.18c20.96,49.83,37.99,97.64,50.62,142.09,11.95,42.07,20.32,82.42,24.87,119.94,4.28,35.22,5.33,69.08,3.13,100.62-2.04,29.27-6.96,57.57-14.62,84.1-13.19,45.72-34.9,88.16-66.35,129.75-27.63,36.54-58.69,67.36-88.73,97.17-61.8,61.34-115.17,114.31-115.71,193.91-.28,42.29,14.52,89.19,45.25,143.4,33.84,59.69,86.58,127.75,161.24,208.06l-2.23,2.08Z"/>
  <path class="cls-104" d="m1013.02,1315.48c-75.33-80.07-128.66-147.96-163.01-207.55-31.4-54.46-46.69-101.71-46.74-144.45-.04-36.94,11.02-70.54,34.8-105.74,21.19-31.36,50.04-60.36,80.59-91.06,116.85-117.44,262.28-263.61,94.06-674.27l2.82-1.16c20.46,49.96,37.04,97.91,49.26,142.52,11.57,42.22,19.59,82.74,23.85,120.44,4,35.39,4.8,69.42,2.39,101.16-2.23,29.44-7.31,57.92-15.1,84.65-13.41,46.04-35.21,88.83-66.67,130.8-27.63,36.86-58.55,67.95-88.46,98-61.49,61.8-114.59,115.17-114.5,194.64.05,42.19,15.2,88.94,46.33,142.93,34.24,59.38,87.42,127.08,162.59,206.98l-2.22,2.09Z"/>
  <path class="cls-109" d="m1024.02,1317.03c-75.81-79.66-129.55-147.19-164.29-206.47-31.78-54.24-47.42-101.34-47.79-143.99-.32-36.91,10.49-70.55,34.02-105.87,20.99-31.5,49.72-60.76,80.14-91.74,116.61-118.75,261.73-266.54,97.6-678.1l2.83-1.13c73.3,183.81,91.89,331.23,56.83,450.67-30.46,103.78-96.67,171.21-155.09,230.7-61.16,62.29-113.98,116.08-113.29,195.45.37,42.11,15.86,88.71,47.37,142.48,34.62,59.07,88.22,126.43,163.87,205.91l-2.21,2.1Z"/>
  <path class="cls-110" d="m1035.03,1318.59c-76.26-79.24-130.39-146.43-165.49-205.41-32.15-54.02-48.11-100.98-48.8-143.56-.6-36.87,9.97-70.57,33.26-106.04,20.78-31.65,49.39-61.19,79.68-92.46,116.29-120.07,261.03-269.51,101.02-681.83l2.85-1.1c160.71,414.14,15.22,564.36-101.68,685.05-60.83,62.8-113.36,117.04-112.08,196.33.68,42.03,16.5,88.5,48.37,142.05,34.98,58.77,88.97,125.78,165.06,204.85l-2.2,2.12Z"/>
  <path class="cls-108" d="m1046.04,1320.14c-76.67-78.82-131.17-145.67-166.61-204.35-32.49-53.81-48.77-100.63-49.76-143.15-.86-36.85,9.47-70.61,32.51-106.24,20.57-31.81,49.05-61.64,79.21-93.23,115.92-121.41,260.18-272.51,104.32-685.44l2.85-1.08c69.57,184.32,85.86,332.86,49.8,454.1-31.29,105.19-96.89,173.9-154.77,234.52-60.49,63.35-112.72,118.07-110.87,197.29.98,41.97,17.12,88.3,49.33,141.64,35.32,58.48,89.67,125.15,166.18,203.8l-2.19,2.13Z"/>
  <path class="cls-107" d="m1057.05,1321.69c-77.05-78.41-131.89-144.91-167.64-203.31-32.82-53.6-49.4-100.3-50.69-142.77-2.44-80.44,49.89-136.08,110.5-200.51,115.47-122.76,259.18-275.54,107.49-688.93l2.86-1.05c67.69,184.48,82.85,333.51,46.34,455.63-31.65,105.87-96.9,175.24-154.47,236.44-60.14,63.93-112.07,119.15-109.67,198.32,1.27,41.92,17.71,88.13,50.24,141.27,35.63,58.2,90.33,124.53,167.22,202.77l-2.18,2.14Z"/>
  <path class="cls-113" d="m1068.05,1323.25c-77.4-77.99-132.55-144.16-168.6-202.29-33.12-53.4-49.99-99.99-51.56-142.42-2.99-80.42,49.04-136.59,109.28-201.63,114.96-124.12,258.03-278.6,110.52-692.29l2.87-1.02c65.81,184.57,79.85,334.06,42.93,457.02-31.99,106.54-96.86,176.58-154.09,238.37-59.78,64.54-111.41,120.29-108.47,199.45,1.55,41.89,18.27,87.99,51.1,140.93,35.93,57.93,90.94,123.92,168.17,201.75l-2.17,2.15Z"/>
  <path class="cls-111" d="m1079.06,1324.8c-77.71-77.58-133.14-143.42-169.46-201.28-33.4-53.21-50.54-99.69-52.39-142.1-3.51-80.43,48.2-137.16,108.07-202.84,114.38-125.5,256.73-281.68,113.42-695.52l2.88-1c63.92,184.59,76.87,334.49,39.57,458.27-32.3,107.19-96.75,177.91-153.62,240.3-59.41,65.19-110.73,121.49-107.27,200.66,1.83,41.87,18.81,87.86,51.92,140.61,36.2,57.66,91.49,123.33,169.03,200.75l-2.16,2.16Z"/>
  <path class="cls-31" d="m1090.06,1326.35c-77.98-77.17-133.67-142.69-170.24-200.3-33.66-53.03-51.05-99.42-53.16-141.82-4-80.46,47.37-137.77,106.86-204.14,113.73-126.88,255.28-284.79,116.17-698.61l2.89-.97c62.03,184.54,73.9,334.81,36.26,459.39-32.57,107.82-96.58,179.23-153.05,242.23-59.04,65.87-110.03,122.75-106.09,201.95,2.08,41.86,19.32,87.76,52.69,140.33,36.45,57.41,91.99,122.76,169.81,199.76l-2.15,2.17Z"/>
  <path class="cls-32" d="m1101.07,1327.91c-78.22-76.76-134.13-141.97-170.93-199.33-33.9-52.85-51.53-99.16-53.89-141.56-4.48-80.51,46.56-138.44,105.67-205.53,113.02-128.28,253.68-287.92,118.77-701.56l2.9-.95c60.15,184.42,70.95,335,33.02,460.36-32.81,108.44-96.34,180.54-152.4,244.16-58.66,66.58-109.32,124.08-104.91,203.34,2.33,41.87,19.8,87.69,53.41,140.08,36.67,57.17,92.44,122.2,170.49,198.8l-2.14,2.18Z"/>
  <path class="cls-35" d="m1112.07,1329.46c-78.42-76.36-134.52-141.25-171.52-198.39-34.12-52.68-51.97-98.92-54.56-141.35-2.26-36.94,6.73-71.35,28.32-108.27,19.34-33.09,46.94-64.98,76.16-98.74,112.24-129.68,251.92-291.07,121.22-704.35l2.91-.92c58.26,184.22,68.02,335.08,29.83,461.18-33.02,109.03-96.04,181.85-151.65,246.09-58.27,67.33-108.6,125.47-103.74,204.82,2.57,41.89,20.26,87.64,54.08,139.87,36.87,56.94,92.84,121.66,171.09,197.86l-2.13,2.19Z"/>
  <path class="cls-34" d="m1123.08,1331.01c-78.57-75.96-134.84-140.55-172.02-197.47-34.31-52.53-52.36-98.7-55.18-141.17-2.46-37,6.33-71.56,27.68-108.76,19.14-33.36,46.57-65.64,75.62-99.82,111.39-131.08,250.01-294.22,123.51-706.99l2.92-.89c56.38,183.96,65.11,335.03,26.7,461.85-33.19,109.6-95.68,183.13-150.81,248.01-57.88,68.11-107.86,126.93-102.57,206.4,2.79,41.93,20.68,87.62,54.7,139.7,37.05,56.72,93.17,121.14,171.58,196.94l-2.12,2.19Z"/>
  <path class="cls-36" d="m1134.08,1332.56c-78.69-75.56-135.09-139.86-172.41-196.58-34.48-52.38-52.71-98.51-55.75-141.03-2.65-37.07,5.95-71.8,27.06-109.29,18.94-33.64,46.2-66.34,75.06-100.96,110.47-132.5,247.95-297.39,125.64-709.46l2.93-.87c54.5,183.62,62.24,334.86,23.65,462.36-33.34,110.15-95.25,184.41-149.87,249.92-57.47,68.93-107.11,128.47-101.42,208.08,3,41.98,21.07,87.64,55.25,139.57,37.2,56.52,93.46,120.65,171.98,196.05l-2.11,2.2Z"/>
  <path class="cls-45" d="m1145.09,1334.11c-78.77-75.17-135.26-139.19-172.71-195.71-34.62-52.24-53.02-98.34-56.26-140.93-2.82-37.15,5.58-72.07,26.46-109.88,18.74-33.94,45.82-67.07,74.5-102.15,109.48-133.91,245.73-300.56,127.6-711.76l2.93-.84c14.35,49.96,25.43,98.31,32.92,143.71,7.08,42.87,11.17,84.41,12.17,123.44.93,36.56-.82,72.07-5.21,105.55-4.07,30.98-10.53,61.27-19.21,90.01-33.44,110.68-94.75,185.66-148.84,251.82-57.06,69.79-106.34,130.07-100.28,209.86,3.2,42.06,21.44,87.68,55.76,139.48,37.32,56.33,93.68,120.18,172.28,195.19l-2.11,2.21Z"/>
  <path class="cls-39" d="m1156.09,1335.66c-78.8-74.79-135.36-138.53-172.91-194.88-34.73-52.12-53.28-98.2-56.71-140.88-2.99-37.25,5.23-72.37,25.88-110.52,18.54-34.26,45.44-67.84,73.92-103.39,108.42-135.32,243.36-303.74,129.39-713.88l2.94-.82c13.85,49.83,24.48,98.09,31.6,143.45,6.72,42.83,10.52,84.35,11.29,123.41.71,36.58-1.21,72.14-5.72,105.71-4.17,31.06-10.7,61.45-19.4,90.32-33.51,111.18-94.18,186.9-147.71,253.71-56.64,70.69-105.56,131.75-99.14,211.75,3.38,42.15,21.77,87.75,56.2,139.43,37.42,56.15,93.84,119.73,172.47,194.36l-2.1,2.21Z"/>
  <path class="cls-40" d="m1167.1,1337.21c-78.78-74.41-135.37-137.89-172.99-194.08-34.82-52-53.5-98.08-57.1-140.87-3.14-37.36,4.9-72.7,25.32-111.2,18.34-34.6,45.05-68.64,73.34-104.69,107.3-136.73,240.84-306.9,131.01-715.82l2.95-.79c13.34,49.67,23.53,97.83,30.28,143.12,6.38,42.76,9.88,84.26,10.42,123.34.5,36.59-1.58,72.2-6.2,105.84-4.27,31.13-10.85,61.61-19.57,90.61-33.55,111.65-93.55,188.12-146.49,255.58-56.21,71.63-104.76,133.5-98.01,213.75,3.55,42.26,22.06,87.86,56.59,139.43,37.5,55.99,93.94,119.31,172.55,193.55l-2.09,2.22Z"/>
  <path class="cls-38" d="m1178.1,1338.76c-78.72-74.03-135.3-137.27-172.97-193.31-34.89-51.9-53.67-97.99-57.43-140.91-3.28-37.49,4.59-73.06,24.77-111.95,18.14-34.95,44.66-69.48,72.74-106.04,106.11-138.14,238.16-310.07,132.45-717.56l2.95-.77c12.84,49.5,22.59,97.52,28.98,142.73,6.03,42.68,9.26,84.14,9.57,123.21.3,36.58-1.94,72.22-6.66,105.93-4.36,31.19-10.99,61.76-19.71,90.88-33.55,112.1-92.85,189.31-145.17,257.43-55.77,72.61-103.94,135.33-96.9,215.86,3.71,42.39,22.33,88.01,56.92,139.47,37.54,55.85,93.97,118.91,172.53,192.79l-2.09,2.22Z"/>
  <path class="cls-37" d="m1189.1,1340.31c-78.62-73.67-135.15-136.66-172.84-192.57-34.92-51.81-53.79-97.94-57.7-141-3.41-37.63,4.3-73.46,24.25-112.75,17.94-35.33,44.26-70.36,72.13-107.45,104.84-139.54,235.33-313.21,133.71-719.11l2.96-.74c12.34,49.3,21.66,97.17,27.7,142.28,5.7,42.58,8.64,83.98,8.74,123.04.1,36.57-2.29,72.23-7.1,105.99-4.45,31.23-11.11,61.89-19.82,91.12-33.51,112.52-92.08,190.48-143.76,259.26-55.33,73.64-103.11,137.24-95.78,218.09,3.85,42.54,22.56,88.19,57.19,139.57,37.56,55.72,93.95,118.54,172.39,192.05l-2.09,2.23Z"/>
  <path class="cls-42" d="m1200.11,1341.86c-78.46-73.31-134.91-136.07-172.59-191.88-34.93-51.74-53.87-97.91-57.9-141.14-3.53-37.79,4.02-73.89,23.75-113.6,17.75-35.72,43.86-71.28,71.51-108.92,103.52-140.94,232.34-316.34,134.79-720.45l2.97-.72c11.85,49.08,20.74,96.78,26.42,141.76,5.37,42.46,8.04,83.79,7.94,122.82-.09,36.53-2.62,72.2-7.51,106.01-4.52,31.27-11.22,62-19.9,91.33-33.43,112.9-91.25,191.62-142.25,261.06-54.87,74.71-102.26,139.22-94.68,220.43,3.98,42.71,22.76,88.41,57.39,139.71,37.54,55.61,93.85,118.21,172.14,191.36l-2.08,2.23Z"/>
  <path class="cls-23" d="m1211.11,1343.41c-78.25-72.96-134.59-135.51-172.22-191.23-34.9-51.68-53.89-97.91-58.04-141.33-3.63-37.97,3.77-74.36,23.27-114.52,17.55-36.14,43.45-72.23,70.87-110.45,102.12-142.32,229.21-319.44,135.67-721.57l2.97-.69c11.36,48.84,19.83,96.34,25.17,141.18,5.04,42.33,7.45,83.56,7.15,122.54-.28,36.49-2.93,72.15-7.89,105.98-4.59,31.3-11.3,62.09-19.96,91.51-33.32,113.26-90.34,192.72-140.64,262.83-56.64,78.94-101.38,141.29-93.58,222.9,4.1,42.9,22.92,88.67,57.53,139.91,37.5,55.52,93.69,117.9,171.77,190.7l-2.08,2.23Z"/>
  <path class="cls-27" d="m1222.11,1344.96c-78-72.62-134.17-134.97-171.73-190.61-34.85-51.63-53.86-97.94-58.11-141.58-3.72-38.16,3.53-74.86,22.81-115.5,17.35-36.57,43.03-73.23,70.22-112.04,100.65-143.69,225.92-322.52,136.37-722.48l2.98-.67c10.88,48.57,18.93,95.86,23.93,140.54,4.72,42.17,6.88,83.29,6.39,122.21-.45,36.43-3.23,72.06-8.25,105.92-4.64,31.32-11.37,62.15-19.99,91.66-33.17,113.58-89.36,193.8-138.94,264.57-56.14,80.15-100.49,143.45-92.49,225.49,4.2,43.12,23.05,88.96,57.61,140.17,37.43,55.45,93.46,117.63,171.28,190.09l-2.08,2.23Z"/>
  <path class="cls-43" d="m1233.11,1346.51c-77.68-72.28-133.66-134.45-171.12-190.04-34.77-51.6-53.78-98.02-58.12-141.89-3.8-38.38,3.31-75.41,22.37-116.54,17.16-37.03,42.61-74.27,69.55-113.69,99.12-145.04,222.48-325.56,136.87-723.15l2.98-.64c10.4,48.28,18.04,95.33,22.72,139.83,4.41,42,6.32,82.99,5.65,121.83-.62,36.35-3.51,71.95-8.58,105.82-4.69,31.32-11.42,62.2-19.99,91.78-32.99,113.87-88.32,194.83-137.14,266.27-55.63,81.4-99.57,145.69-91.4,228.21,8.86,89.57,79.27,191.35,228.28,329.99l-2.08,2.23Z"/>
  <path class="cls-44" d="m1244.11,1348.06c-77.32-71.96-133.05-133.95-170.37-189.52-34.65-51.59-53.65-98.12-58.06-142.25-3.86-38.61,3.11-75.99,21.95-117.65,16.96-37.51,42.17-75.35,68.86-115.41,97.53-146.38,218.9-328.55,137.17-723.59l2.99-.62c9.92,47.97,17.16,94.75,21.52,139.05,4.11,41.81,5.77,82.65,4.94,121.39-.78,36.26-3.77,71.81-8.89,105.67-4.73,31.31-11.45,62.22-19.96,91.87-32.77,114.12-87.2,195.83-135.24,267.93-55.1,82.7-98.62,148.02-90.31,231.06,9.01,90.09,79.17,191.81,227.48,329.84l-2.08,2.23Z"/>
  <path class="cls-41" d="m1255.11,1349.61c-76.89-71.64-132.34-133.48-169.5-189.04-34.51-51.59-53.46-98.27-57.93-142.68-3.92-38.86,2.93-76.62,21.54-118.82,16.76-38.01,41.73-76.47,68.16-117.19,95.86-147.69,215.17-331.5,137.28-723.79l2.99-.59c34.67,174.63,33.21,323.95-4.47,456.51-32.5,114.34-86.02,196.79-133.24,269.54-54.55,84.05-97.65,150.44-89.22,234.05,9.14,90.66,78.98,192.37,226.48,329.8l-2.08,2.23Z"/>
  <path class="cls-20" d="m1266.11,1351.15c-76.41-71.34-131.53-133.04-168.49-188.62-34.33-51.62-53.21-98.45-57.74-143.18-3.96-39.13,2.77-77.29,21.16-120.07,16.57-38.54,41.27-77.64,67.43-119.04,94.13-148.98,211.29-334.39,137.18-723.73l3-.57c32.99,173.32,30.88,322.09-6.46,454.83-32.21,114.51-84.77,197.7-131.14,271.1-53.99,85.46-96.64,152.95-88.13,237.17,9.23,91.29,78.7,193.03,225.27,329.87l-2.08,2.23Z"/>
  <path class="cls-24" d="m1277.11,1352.7c-75.87-71.05-130.61-132.62-167.34-188.24-34.12-51.66-52.91-98.67-57.46-143.74-3.98-39.43,2.62-78,20.79-121.39,16.36-39.09,40.81-78.86,66.68-120.96,92.34-150.24,207.26-337.22,136.88-723.42l3-.55c31.33,171.92,28.61,320.08-8.33,452.96-31.87,114.65-83.45,198.57-128.95,272.61-53.42,86.91-95.61,155.56-87.03,240.44,9.29,91.99,78.33,193.78,223.86,330.06l-2.09,2.23Z"/>
  <path class="cls-22" d="m1288.11,1354.25c-75.27-70.77-129.58-132.24-166.05-187.92-33.87-51.71-52.55-98.94-57.12-144.37-4-39.74,2.5-78.76,20.43-122.78,16.16-39.66,40.33-80.12,65.91-122.94,90.48-151.47,203.09-339.99,136.37-722.83l3.01-.52c29.7,170.43,26.4,317.91-10.1,450.87-31.49,114.74-82.05,199.38-126.66,274.05-52.82,88.42-94.54,158.26-85.93,243.85,9.33,92.75,77.86,194.64,222.23,330.38l-2.09,2.22Z"/>
  <path class="cls-21" d="m1299.11,1355.79c-74.6-70.5-128.44-131.89-164.61-187.66-33.59-51.79-52.14-99.25-56.71-145.07-4-40.08,2.39-79.56,20.1-124.25,15.96-40.26,39.83-81.42,65.11-125,88.56-152.67,198.78-342.67,135.65-721.97l3.01-.5c28.1,168.86,24.26,315.59-11.75,448.57-31.08,114.79-80.59,200.13-124.27,275.44-52.2,89.98-93.43,161.05-84.81,247.41,9.33,93.57,77.3,195.6,220.38,330.82l-2.1,2.22Z"/>
  <path class="cls-14" d="m1310.11,1357.34c-73.87-70.25-127.19-131.57-163.02-187.46-33.27-51.89-51.66-99.6-56.22-145.85-3.99-40.44,2.3-80.42,19.77-125.79,15.75-40.89,39.33-82.78,64.29-127.13,86.58-153.83,194.33-345.27,134.73-720.83l3.01-.48c26.54,167.2,22.19,313.11-13.29,446.06-30.63,114.79-79.06,200.83-121.79,276.75-51.55,91.6-92.28,163.95-83.68,251.12,9.31,94.46,76.64,196.67,218.31,331.4l-2.1,2.21Z"/>
  <path class="cls-29" d="m1321.1,1358.88c-73.06-70.01-125.82-131.28-161.28-187.32-32.92-52.01-51.12-100-55.65-146.71-3.96-40.83,2.22-81.32,19.46-127.42,15.54-41.54,38.8-84.18,63.43-129.32,84.54-154.94,189.74-347.77,133.59-719.39l3.02-.46c25,165.45,20.19,310.47-14.72,443.32-30.15,114.75-77.46,201.47-119.21,277.99-50.89,93.27-91.08,166.94-82.54,254.99,9.26,95.42,75.88,197.85,216.01,332.12l-2.11,2.2Z"/>
  <path class="cls-33" d="m1332.1,1360.42c-72.19-69.78-124.33-131.03-159.38-187.24-32.52-52.16-50.52-100.45-55.01-147.64-3.93-41.24,2.16-82.28,19.17-129.13,15.32-42.22,38.26-85.63,62.54-131.6,82.43-156.01,185.02-350.17,132.23-717.65l3.02-.43c23.5,163.62,18.26,307.67-16.02,440.37-29.62,114.65-75.79,202.04-116.53,279.14-50.19,95-89.84,170.03-81.37,259.01,9.18,96.46,75.02,199.15,213.47,332.98l-2.12,2.19Z"/>
  <path class="cls-30" d="m1343.09,1361.97c-71.25-69.57-122.71-130.82-157.32-187.23-32.1-52.33-49.86-100.95-54.3-148.66-3.88-41.68,2.12-83.28,18.88-130.93,15.1-42.92,37.7-87.13,61.62-133.94,80.27-157.03,180.16-352.46,130.67-715.6l3.02-.41c22.04,161.7,16.41,304.71-17.21,437.19-29.06,114.51-74.06,202.54-113.76,280.21-49.47,96.78-88.55,173.23-80.18,263.2,9.08,97.57,74.06,200.58,210.7,333.99l-2.13,2.18Z"/>
  <path class="cls-16" d="m1354.09,1363.51c-288.18-284.65-224.98-412.58-129.33-606.23,78.04-158,175.17-354.63,128.88-713.23l3.03-.39c20.61,159.7,14.63,301.59-18.28,433.79-28.46,114.31-72.26,202.97-110.89,281.19-46.79,94.72-87.2,176.53-78.95,267.55,8.95,98.76,73,202.12,207.69,335.16l-2.14,2.17Z"/>
  <path class="cls-17" d="m1365.08,1365.05c-69.15-69.2-119.09-130.51-152.68-187.42-31.12-52.74-48.34-102.12-52.63-150.97-3.75-42.64,2.08-85.47,18.32-134.79,14.63-44.42,36.5-90.29,59.66-138.85,75.76-158.91,170.06-356.67,126.89-710.54l3.03-.37c19.23,157.61,12.94,298.31-19.23,430.15-27.83,114.06-70.38,203.32-107.93,282.07-46.03,96.55-85.79,179.94-77.7,272.06,8.79,100.02,71.83,203.8,204.43,336.5l-2.16,2.16Z"/>
  <path class="cls-15" d="m1376.08,1366.59c-67.98-69.04-117.08-130.42-150.1-187.63-30.58-52.98-47.48-102.78-51.68-152.25-3.66-43.16,2.08-86.65,18.06-136.86,14.39-45.21,35.87-91.95,58.62-141.43,73.43-159.75,164.81-358.57,124.67-707.5l3.03-.35c17.88,155.43,11.32,294.87-20.05,426.28-27.16,113.75-68.45,203.58-104.88,282.84-92.14,200.46-153.01,332.9,124.5,614.75l-2.17,2.14Z"/>
  <path class="cls-26" d="m1387.07,1368.13c-66.73-68.9-114.92-130.37-147.33-187.91-29.99-53.25-46.56-103.51-50.65-153.64-3.57-43.71,2.09-87.89,17.79-139.02,14.14-46.03,35.21-93.65,57.52-144.07,71.04-160.53,159.45-360.31,122.24-704.12l3.03-.33c16.57,153.16,9.78,291.26-20.76,422.18-26.45,113.38-66.44,203.76-101.73,283.5-44.42,100.38-82.78,187.07-75.07,281.61,8.39,102.81,69.19,207.57,197.13,339.68l-2.19,2.12Z"/>
  <path class="cls-25" d="m1398.06,1369.67c-65.4-68.78-112.63-130.37-144.38-188.28-29.36-53.55-45.57-104.29-49.54-155.12-3.46-44.29,2.11-89.19,17.53-141.28,13.88-46.88,34.52-95.42,56.38-146.8,68.59-161.24,153.96-361.9,119.6-700.38l3.04-.31c15.31,150.81,8.33,287.48-21.33,417.84-25.71,112.96-64.38,203.85-98.49,284.04-43.55,102.38-81.17,190.79-73.68,286.65,8.16,104.34,67.71,209.67,193.09,341.54l-2.21,2.1Z"/>
  <path class="cls-28" d="m1409.05,1371.2c-63.98-68.68-110.18-130.41-141.24-188.73-28.69-53.88-44.51-105.14-48.35-156.71-3.35-44.91,2.14-90.55,17.26-143.64,13.61-47.77,33.8-97.23,55.19-149.6,66.1-161.87,148.36-363.32,116.74-696.27l3.04-.29c31.69,333.7-50.73,535.53-116.95,697.71-87.25,213.67-144.89,354.83,116.55,635.45l-2.23,2.08Z"/>
  <path class="cls-46" d="m1420.04,1372.74c-62.48-68.6-107.59-130.51-137.9-189.28-27.98-54.24-43.38-106.05-47.08-158.4-3.22-45.55,2.18-91.98,16.99-146.11,13.32-48.68,33.05-99.1,53.94-152.48,63.55-162.41,142.65-364.55,113.66-691.78l3.04-.27c29.05,327.95-50.19,530.45-113.86,693.16-85.46,218.41-141.92,362.7,113.47,643.1l-2.26,2.05Z"/>
  <path class="cls-50" d="m1431.03,1374.27c-60.89-68.54-104.84-130.66-134.36-189.91-27.22-54.63-42.18-107.03-45.73-160.2-3.09-46.23,2.22-93.48,16.71-148.68,13.02-49.63,32.26-101.02,52.62-155.44,60.96-162.88,136.82-365.58,110.38-686.9l3.04-.25c11.79,143.24,4.49,275.18-22.32,403.35-23.28,111.3-57.79,203.51-88.24,284.87-83.58,223.32-138.8,370.86,110.18,651.14l-2.28,2.03Z"/>
  <path class="cls-48" d="m1442.02,1375.81c-59.2-68.51-101.93-130.87-130.61-190.64-26.42-55.05-40.91-108.08-44.3-162.12-6.42-102.46,27.91-198.56,67.67-309.84,58.32-163.24,130.9-366.41,106.88-681.63l3.04-.23c10.71,140.55,3.38,270.75-22.4,398.03-22.4,110.61-55.47,203.18-84.65,284.86-78.67,220.21-135.51,379.32,106.68,659.58l-2.31,2Z"/>
  <path class="cls-18" d="m1453,1377.34c-57.42-68.5-98.85-131.13-126.65-191.47-25.58-55.51-39.57-109.21-42.79-164.16-6.09-104.11,27.28-202.19,65.91-315.75,55.63-163.51,124.87-367.01,103.17-675.94l3.04-.21c9.68,137.77,2.37,266.15-22.35,392.46-21.5,109.86-53.1,202.74-80.98,284.68-76.65,225.3-132.04,388.08,102.98,668.43l-2.34,1.96Z"/>
  <path class="cls-51" d="m1463.99,1378.86c-55.54-68.52-95.6-131.45-122.47-192.4-24.69-56.01-38.16-110.41-41.2-166.32-5.75-105.86,26.61-205.95,64.07-321.85,52.91-163.68,118.75-367.38,99.26-669.84l3.04-.2c8.69,134.91,1.44,261.38-22.18,386.63-20.56,109.03-50.66,202.16-77.22,284.34-74.52,230.56-128.37,397.15,99.06,677.7l-2.37,1.92Z"/>
  <path class="cls-47" d="m1474.97,1380.39c-220.42-282.13-168.01-453.29-95.46-690.19,50.14-163.73,112.53-367.5,95.14-663.3l3.05-.18c7.76,131.97.6,256.45-21.88,380.55-19.59,108.12-48.17,201.46-73.39,283.82-72.27,236.01-124.49,406.54,94.95,687.42l-2.4,1.88Z"/>
  <path class="cls-49" d="m1485.95,1381.92c-51.48-68.63-88.58-132.28-113.42-194.59-22.77-57.11-35.13-113.05-37.78-171.02-5.01-109.6,25.15-213.89,60.07-334.64,47.33-163.67,106.24-367.35,90.83-656.31l3.05-.16c6.88,128.95-.14,251.36-21.46,374.22-18.59,107.14-45.63,200.62-69.48,283.1-69.88,241.65-120.38,416.25,90.64,697.58l-2.44,1.83Z"/>
  <path class="cls-19" d="m1496.94,1383.44c-49.29-68.73-84.79-132.8-108.54-195.86-21.74-57.72-33.5-114.5-35.95-173.58-4.63-111.61,24.34-218.07,57.89-341.34,46.81-171.99,99.86-366.93,86.32-648.87l3.05-.15c6.05,125.85-.8,246.1-20.92,367.62-17.57,106.08-43.03,199.64-65.5,282.19-67.35,247.48-116.02,426.3,86.14,708.2l-2.48,1.78Z"/>
  <path class="cls-52" d="m1507.92,1384.96c-46.99-68.86-80.81-133.38-103.42-197.25-20.66-58.38-31.8-116.04-34.04-176.28-4.24-113.71,23.48-222.39,55.58-348.24,43.78-171.65,93.41-366.21,81.62-640.95l3.05-.13c5.27,122.67-1.36,240.67-20.26,360.76-16.52,104.93-40.39,198.51-61.44,281.07-64.67,253.51-111.39,436.68,81.44,719.3l-2.52,1.72Z"/>
  <path class="cls-53" d="m1518.9,1386.47c-44.57-69.03-76.64-134.05-98.04-198.77-19.54-59.08-30.02-117.67-32.06-179.13-3.84-115.91,22.56-226.87,53.13-355.34,40.73-171.17,86.9-365.18,76.73-632.55l3.05-.12c4.54,119.41-1.83,235.09-19.48,353.64-15.44,103.7-36.73,193.19-57.33,279.73-59.48,249.97-106.46,447.41,76.57,730.88l-2.56,1.66Z"/>
  <path class="cls-6" d="m1529.87,1387.98c-42.03-69.22-72.26-134.78-92.41-200.43-18.36-59.82-28.17-119.4-30-182.13-1.58-54.05,2.64-110.34,13.25-177.13,9.49-59.68,22.98-120.81,37.27-185.52,37.65-170.53,80.33-363.82,71.67-623.64l3.05-.1c3.87,116.07-2.21,229.33-18.59,346.25-14.34,102.39-34.07,191.74-53.15,278.15-56.56,256.16-101.23,458.49,71.52,742.97l-2.61,1.58Z"/>
  <path class="cls-4" d="m1540.85,1389.49c-39.38-69.45-67.67-135.6-86.51-202.22-17.14-60.61-26.25-121.22-27.87-185.3-1.39-55.14,2.64-112.63,12.68-180.94,8.96-60.97,21.64-123.28,35.07-189.24,34.55-169.73,73.7-362.11,66.43-614.23l3.05-.09c7.28,252.47-31.91,445.03-66.49,614.92-53.44,262.55-95.65,469.93,66.3,755.58l-2.65,1.5Z"/>
  <path class="cls-7" d="m1551.83,1391c-69.4-132.22-103.08-257.03-106-392.79-1.21-56.27,2.62-115.02,12.04-184.89,8.41-62.31,20.23-125.8,32.75-193.02,31.43-168.76,67.04-360.03,61.04-604.28l3.05-.07c6.01,244.57-29.64,436.01-61.09,604.91-50.12,269.15-89.71,481.74,60.91,768.72l-2.7,1.42Z"/>
  <path class="cls-9" d="m1562.81,1392.5c-63.86-132.78-94.77-259.38-97.27-398.4-1.03-57.45,2.57-117.5,11.34-188.99,7.81-63.68,18.73-128.37,30.29-196.86,28.29-167.6,60.35-357.57,55.49-593.79l3.05-.06c4.87,236.51-27.22,426.62-55.53,594.36-46.58,275.96-83.37,493.93,55.38,782.42l-2.75,1.32Z"/>
  <path class="cls-11" d="m1573.78,1393.99c-58.08-133.42-86.1-261.91-88.19-404.35-1.89-128.53,17.62-257.48,38.26-394,25.14-166.26,53.64-354.69,49.8-582.73l3.05-.05c1.72,102-2.83,204.71-13.91,314-9.75,96.19-23.06,184.16-35.92,269.24-41.1,271.78-76.6,506.5,49.71,796.68l-2.8,1.22Z"/>
  <path class="cls-10" d="m1584.76,1395.49c-27.45-70.77-47.11-139.77-60.09-210.94-11.74-64.31-17.84-129.64-18.65-199.73-1.53-131.4,16.05-263.02,34.66-402.37,22-164.7,46.93-351.38,43.98-571.09l3.05-.04c1.32,98.31-2.77,198.16-12.49,305.26-8.57,94.39-20.24,181.77-31.52,266.28-37.22,278.74-69.37,519.47,43.91,811.53l-2.85,1.1Z"/>
  <path class="cls-8" d="m1595.74,1396.97c-99.85-294.8-71.25-542.03-38.13-828.31,19.77-170.9,40.21-347.61,38.05-558.85l3.05-.03c.97,94.55-2.62,191.45-10.97,296.24-7.37,92.48-17.4,179.17-27.1,263-33.08,285.91-61.64,532.83,37.99,826.98l-2.89.98Z"/>
  <path class="cls-5" d="m1606.72,1398.45c-20.64-71.69-35.38-142.45-45.08-216.33-8.73-66.52-13.2-134.59-13.67-208.12-.88-137.55,12.51-274.62,26.68-419.75,16.48-168.8,33.53-343.36,32.02-545.99l3.05-.02c1.51,202.79-15.54,377.43-32.03,546.31-28.64,293.31-53.37,546.61,31.97,843.07l-2.93.84Z"/>
  <path class="cls-13" d="m1617.7,1399.93c-17-72.22-29.14-143.97-37.09-219.33-7.15-67.72-10.78-137.28-11.1-212.65-.6-140.83,10.5-280.69,22.25-428.76,13.21-166.46,26.88-338.59,25.9-532.49l3.05-.02c.98,194.03-12.69,366.22-25.91,532.74-23.89,300.92-44.52,560.81,25.87,859.8l-2.97.7Z"/>
  <path class="cls-12" d="m1628.69,1401.4c-13.2-72.81-22.61-145.6-28.77-222.53-5.52-68.99-8.3-140.11-8.49-217.42-.37-144.25,8.32-286.93,17.51-437.98,9.97-163.85,20.28-333.27,19.72-518.31h3.05c.56,185.13-9.76,354.6-19.73,518.5-18.01,295.92-35.02,575.44,19.71,877.21l-3,.54Z"/>
  <path class="cls-1" d="m1639.68,1402.86c-38.37-305.07-26.3-592.02-13.52-895.82,6.77-160.95,13.77-327.38,13.51-503.44h3.05c.26,176.12-6.74,342.59-13.51,503.57-12.77,303.67-24.84,590.5,13.5,895.31l-3.03.38Z"/>
  <path class="cls-2" d="m1650.67,1404.33c-21.18-308.27-14.43-602.7-7.29-914.42,3.62-157.75,7.36-320.88,7.28-487.86h3.05c.07,167.02-3.67,330.16-7.28,487.93-7.15,311.65-13.89,606.01,7.28,914.14l-3.04.21Z"/>
  <path class="cls-3" d="m1661.67,1405.79c-3.2-311.78-2.12-628-1.07-933.81.53-154.22,1.07-313.69,1.07-471.48h3.05c0,157.79-.54,317.27-1.07,471.49-1.05,305.8-2.13,622.01,1.07,933.76l-3.05.03Z"/>
</svg>