<?xml version="1.0" encoding="UTF-8"?>
<svg id="Layer_1" data-name="Layer 1" xmlns="http://www.w3.org/2000/svg" viewBox="0 0 99.39 99.39">
  <defs>
    <style>
      .cls-1 {
        fill: #b39359;
      }

      .cls-2 {
        fill: #0d2c3d;
      }
    </style>
  </defs>
  <path class="cls-1" d="m32.1,42.17l10.85,8.37c.42,3.37,3.26,6,6.75,6,3.78,0,6.84-3.06,6.84-6.84,0-.15-.03-.28-.04-.43l15.9-18.81c1.11-1.24,1.13-3.04.05-4-1.08-.96-2.86-.73-3.97.51l-15.62,16.69c-.95-.5-2.01-.8-3.15-.8-1.22,0-2.35.35-3.35.91l-10.22-7.11c-1.32-.97-3.29-.52-4.41,1-1.11,1.52-.95,3.54.37,4.51Z"/>
  <path class="cls-2" d="m49.7,0c-2.18,0-3.94,1.77-3.94,3.94s1.77,3.94,3.94,3.94c11.56,0,21.98,4.67,29.56,12.25,7.57,7.58,12.24,18,12.25,29.56,0,11.56-4.67,21.98-12.25,29.56-7.58,7.57-18,12.24-29.56,12.25-11.56,0-21.99-4.67-29.56-12.25-7.57-7.58-12.24-18-12.25-29.56,0-8.4,2.48-16.2,6.74-22.74l3.66,2.74c.4.3.92.37,1.38.19.46-.18.81-.57.91-1.06l2.46-11.65c.44-.75.63-1.62.52-2.47l1.11-5.27c.12-.55-.1-1.12-.55-1.47-.45-.34-1.06-.38-1.56-.11L5.13,17.28c-.44.24-.72.68-.76,1.17-.04.49.18.97.58,1.27l3.33,2.49C3.06,30.09,0,39.55,0,49.7c0,27.45,22.25,49.69,49.7,49.7,27.45,0,49.69-22.25,49.7-49.7C99.39,22.25,77.15,0,49.7,0Z"/>
</svg>