<?xml version="1.0" encoding="UTF-8"?>
<svg id="Layer_1" data-name="Layer 1" xmlns="http://www.w3.org/2000/svg" viewBox="0 0 35 18.74">
  <defs>
    <style>
      .cls-1 {
        fill-rule: evenodd;
      }
    </style>
  </defs>
  <path class="cls-1" d="m3.81,8.92c-6.33,3.47,10.72,5.59,14.57,5.55v-2.12l3.19,3.19-3.19,3.2v-1.99c-7.72.29-25.9-4.68-14.97-8.8.1.32.23.63.37.91l.03.06h0ZM30.87,2.37c0-.74.13-1.26.4-1.56s.68-.44,1.22-.44c.26,0,.48.03.65.1.17.07.31.15.41.25.11.1.19.21.25.33s.11.25.15.4c.07.29.11.6.11.91,0,.71-.12,1.23-.36,1.56-.24.33-.65.49-1.24.49-.33,0-.6-.05-.8-.16-.2-.11-.37-.26-.5-.46-.09-.15-.17-.34-.22-.59-.05-.25-.08-.53-.08-.83h0Zm-23.32.62l-2.56-.46c.21-.81.62-1.44,1.23-1.88.6-.44,1.46-.66,2.57-.66,1.27,0,2.19.24,2.76.71.57.48.85,1.07.85,1.79,0,.42-.12.8-.34,1.14-.23.34-.58.64-1.04.9.38.09.67.2.86.33.32.2.58.46.75.79.18.33.27.71.27,1.17,0,.57-.15,1.11-.44,1.64-.3.52-.73.92-1.28,1.2-.56.28-1.29.42-2.2.42s-1.59-.11-2.1-.31c-.51-.21-.93-.51-1.26-.92-.33-.4-.58-.91-.76-1.52l2.71-.36c.11.55.27.93.5,1.14.22.21.51.32.85.32s.66-.13.91-.4.36-.62.36-1.07-.12-.8-.35-1.05-.55-.37-.95-.37c-.21,0-.5.05-.87.16l.14-1.94c.15.02.26.03.35.03.35,0,.64-.11.88-.34s.35-.49.35-.8-.09-.54-.26-.71c-.18-.18-.42-.26-.73-.26s-.58.1-.77.29c-.2.19-.34.52-.41,1.01h0Zm13.87-.63l-2.7.33c-.07-.38-.19-.64-.35-.79-.17-.15-.37-.23-.62-.23-.44,0-.78.22-1.02.66-.18.32-.31,1-.39,2.05.32-.33.66-.57,1-.73.34-.16.74-.24,1.18-.24.87,0,1.61.31,2.21.93.6.62.9,1.41.9,2.37,0,.64-.15,1.23-.46,1.77-.3.53-.73.94-1.26,1.21-.54.27-1.22.41-2.03.41-.98,0-1.76-.17-2.35-.5-.59-.33-1.06-.86-1.42-1.59s-.53-1.69-.53-2.9c0-1.76.37-3.05,1.11-3.87.74-.82,1.77-1.23,3.08-1.23.78,0,1.39.09,1.84.27.45.18.83.44,1.12.79.3.35.53.78.68,1.3h0Zm-4.99,4.35c0,.53.13.94.4,1.24.27.3.59.45.98.45.36,0,.66-.14.89-.41s.36-.68.36-1.21-.13-.97-.37-1.26c-.25-.29-.56-.43-.93-.43s-.69.14-.95.42c-.25.28-.38.68-.38,1.2h0Zm5.78-1.7c0-1.85.33-3.15,1-3.89.67-.74,1.69-1.11,3.05-1.11.66,0,1.2.08,1.62.24.42.16.77.37,1.03.63.27.26.48.53.63.82.15.29.28.62.37,1,.18.73.27,1.49.27,2.28,0,1.77-.3,3.06-.9,3.89-.6.82-1.63,1.23-3.1,1.23-.82,0-1.48-.13-1.99-.39-.51-.26-.92-.65-1.24-1.15-.23-.36-.42-.85-.55-1.47-.13-.62-.19-1.31-.19-2.07h0Zm2.69,0c0,1.24.11,2.09.33,2.55.22.46.54.68.96.68.28,0,.51-.1.71-.29.2-.19.35-.5.44-.92.1-.42.14-1.07.14-1.95,0-1.3-.11-2.16-.33-2.61-.22-.44-.55-.67-.99-.67s-.77.23-.97.68c-.2.46-.3,1.3-.3,2.53h0Zm7.06-2.64c0,.5.04.84.13,1.02.09.18.22.27.38.27.11,0,.21-.04.29-.12.08-.08.14-.2.18-.37.04-.17.06-.43.06-.78,0-.52-.04-.87-.13-1.05s-.22-.27-.4-.27-.31.09-.39.27c-.08.18-.12.52-.12,1.01h0Zm-.81,6.24c3.01,1.53,2.29,3.7-3.04,5.02-1.51.37-3.22.71-5.09.85v1.72c2.08-.15,4.02-.62,5.71-1.03,8.01-1.94,7.73-5.4,2.67-7.36-.07.28-.16.55-.26.8h0Z"/>
</svg>