<?xml version="1.0" encoding="utf-8"?>
<!-- Generator: Adobe Illustrator 23.0.3, SVG Export Plug-In . SVG Version: 6.00 Build 0)  -->
<svg version="1.1" id="Layer_1" xmlns="http://www.w3.org/2000/svg" xmlns:xlink="http://www.w3.org/1999/xlink" x="0px" y="0px"
	 viewBox="0 0 1080 1080" style="enable-background:new 0 0 1080 1080;" xml:space="preserve">
<style type="text/css">
	.st0{display:none;}
	.st1{display:inline;}
</style>
<g class="st0">
	<path class="st1" d="M750.33,461.13l-83.8-195.53l-82.32,123.47H479.63v60.37h136.89l38.42-57.63l97.31,227.06l79.84-199.61h70.12
		v-60.37H791.23L750.33,461.13z"/>
	<path class="st1" d="M630.55,721.11h271.66v60.37H630.55V721.11z"/>
	<path class="st1" d="M540,841.85h362.21v60.37H540V841.85z"/>
	<path class="st1" d="M872.03,87.23V26.86H509.82v60.37H328.71v455.71c-25.19,5.23-48.43,17.37-67.38,35.53
		C235.41,553.64,201.49,540,165.48,540c-76.61,0-138.62,62-138.62,138.62c0,37.03,14.42,71.84,40.6,98.02l193.87,193.87l67.38-67.38
		v150.01h724.43V87.23H872.03z M811.66,87.23v60.37H570.18V87.23H811.66z M110.15,733.95c-14.78-14.78-22.92-34.43-22.92-55.33
		c0-43.25,35-78.25,78.25-78.25c20.9,0,40.55,8.14,55.33,22.92l40.51,40.51l40.51-40.51c30.58-30.58,80.08-30.58,110.67,0
		c30.58,30.58,30.59,80.08,0,110.66L261.33,885.13L110.15,733.95z M992.77,992.77H389.08V842.76l66.12-66.12
		c26.18-26.18,40.6-60.99,40.6-98.02c0-66.72-46.62-120.82-106.72-134.92V147.6h120.74v60.37h362.21V147.6h120.74V992.77z"/>
</g>
<g class="st0">
	<path class="st1" d="M26.84,449.61c2.56-17.38,4.55-34.86,7.78-52.11c20.27-108.05,73.24-197.14,157.67-267.13
		c69.57-57.67,150-91.15,239.81-100.33C655.09,7.24,853.23,148.88,912.79,354.41c15.75,54.36,20.81,109.83,15.9,166.21
		c-1.4,16.04-9.69,26.8-23.18,30.29c-11.74,3.03-25.75-1.16-31.42-11.95c-4.26-8.11-5.2-17.97-8.25-29.4c-0.65,0-4.11,0-7.57,0
		c-16,0-32.01,0.22-48.01-0.07c-17.36-0.32-30.73-14.06-30.35-30.63c0.38-16.45,13.33-29.13,30.47-29.33
		c19.26-0.22,38.52-0.05,57.83-0.05c-10.69-187.6-169.94-348.52-359.35-359.58c0,19.28,0.19,38.52-0.07,57.75
		c-0.16,12.36-5.89,21.84-17.02,27.34c-9.99,4.93-20.16,4.31-29.47-1.89c-8.87-5.91-13.62-14.36-13.59-25.26
		c0.04-16,0-32.01-0.01-48.01c0-3.24,0-6.47,0-9.76C262.59,99.75,99.34,259.93,89.3,449.48c19.61,0,39.19-0.19,58.76,0.07
		c12.56,0.16,21.58,6.61,26.63,17.86c4.91,10.95,3.34,21.61-4.22,30.96c-6.23,7.7-14.6,11.25-24.57,11.2
		c-18.63-0.08-37.25-0.02-57.54-0.02c7.77,90.12,41.3,168.14,101.84,233.92c69.19,75.18,155.38,116.73,258.47,126.46
		c0-21.16-0.32-41.1,0.11-61.02c0.28-13.08,7.76-21.99,19.65-26.33c11.56-4.23,23.46-2.44,30.97,7.37
		c5.07,6.62,8.35,15.98,8.96,24.36c1.32,18.15,0.41,36.47,0.41,55.71c12.73-1.6,24.23-3.04,35.72-4.5
		c20.13-2.56,34.79,7.46,37.26,25.48c2.36,17.24-9.05,31.12-28.62,34.21c-87.41,13.82-172.5,5.14-253.26-31.33
		C158.68,830.11,70.61,721.92,36.41,570.57c-3.95-17.47-5.21-35.54-7.77-53.33c-0.46-3.23-1.19-6.41-1.79-9.62
		C26.84,488.29,26.84,468.95,26.84,449.61z"/>
	<path class="st1" d="M832.23,1051.69c-45,0-90,0.06-135.01-0.01c-48.98-0.08-82.63-33.04-82.79-81.89
		c-0.28-86-0.27-172.01-0.01-258.01c0.15-48.95,33.61-81.97,82.6-82.03c90.34-0.11,180.67-0.1,271.01,0
		c49.24,0.06,83.02,33.78,83.07,82.9c0.09,85.34,0.08,170.67,0,256.01c-0.04,49.23-33.72,82.95-82.88,83.06
		c-45.33,0.1-90.67,0.02-136.01,0.02C832.23,1051.72,832.23,1051.7,832.23,1051.69z M674.64,810.87c0,4.47,0,7.76,0,11.06
		c0.02,48.3,0.02,96.6,0.08,144.9c0.02,18.57,5.98,24.53,24.52,24.54c88.94,0.03,177.88,0.03,266.82,0
		c18.34-0.01,24.8-6.39,24.81-24.57c0.04-49.3,0.02-98.6-0.03-147.9c0-2.53-0.42-5.06-0.68-8.03
		C885.01,810.87,780.55,810.87,674.64,810.87z M990,749.75c0.52-1.82,0.84-2.44,0.85-3.06c0.07-10.32,0.14-20.65,0.14-30.97
		c-0.01-19.83-5.84-25.72-25.55-25.73c-53.3-0.04-106.6-0.05-159.89-0.07c-36.31-0.01-72.62-0.06-108.93,0.03
		c-11.75,0.03-20.54,5.07-21.18,14.14c-1.06,15.09-0.29,30.31-0.29,45.66C780.69,749.75,885.19,749.75,990,749.75z"/>
	<path class="st1" d="M508.89,449.4c35.55,0,69.81-0.08,104.07,0.04c14.31,0.05,25.82,8.22,29.85,20.69
		c6.01,18.59-7.17,38.91-26.94,39.18c-46.31,0.63-92.64,0.52-138.95,0.03c-16.25-0.17-28.09-13.57-28.13-30.46
		c-0.17-59.98-0.18-119.96,0.01-179.94c0.05-17.13,13.03-29.97,29.48-30.18c16.82-0.21,30.25,12.73,30.49,30.37
		c0.36,26.99,0.12,53.98,0.12,80.97C508.9,402.72,508.89,425.35,508.89,449.4z"/>
</g>
<g class="st0">
	<path class="st1" d="M2122.62,348.78c2.14,0.65,4.33,1.17,6.41,1.96c12.23,4.6,19.61,15.59,19.66,29.5
		c0.07,20.25,0.02,40.5,0.02,60.75c0,31.37,0,62.75-0.01,94.12c0,1.49,0.03,3.03-0.32,4.46c-0.73,2.93-2.77,4.45-5.79,4.2
		c-3-0.25-4.75-2.04-5.05-5.07c-0.13-1.36-0.07-2.75-0.07-4.12c0-50.37,0.01-100.75-0.04-151.12c0-3.23-0.08-6.56-0.85-9.66
		c-2.03-8.12-10.07-13.71-19.18-13.59c0,66.05,0,132.11,0,198.76c3.53,0,7.1,0,10.67,0c4.38,0,8.75-0.02,13.13,0.01
		c5.56,0.04,7.51,1.93,7.54,7.4c0.04,6.62,0.09,13.25-0.06,19.87c-0.05,2.28,0.58,3.58,2.73,4.63
		c29.19,14.26,45.44,45.17,41.26,75.85c-4.69,34.42-29.04,59.47-62.21,65.05c-4.41,0.74-8.95,0.96-13.44,0.96
		c-77,0.06-154,0.04-231,0.04c-19.94,0-32.59-12.62-32.59-32.51c-0.01-104.75-0.01-209.5-0.02-314.25
		c0-22.11,5.05-29.49,25.47-37.24C1960.12,348.78,2041.37,348.78,2122.62,348.78z M1884.98,360.35
		c-11.64-0.7-20.28,8.07-20.28,20.31c-0.02,106.75-0.03,213.49-0.02,320.24c0,12.87,7.89,20.63,20.92,20.63
		c62.87,0.01,125.74,0,188.62,0c1.18,0,2.36,0,4.51,0c-1.74-1.28-2.6-1.92-3.48-2.55c-9.09-6.49-16.5-14.53-21.84-24.34
		c-1.45-2.66-3.03-3.61-6.07-3.61c-51.37,0.11-102.75,0.09-154.12,0.1c-6.57,0-8.24-1.63-8.24-8.16c0-72.62,0-145.24,0-217.87
		c0-1.12-0.08-2.28,0.15-3.36c0.65-3.07,2.61-4.96,5.78-4.78c3.1,0.17,5.03,2.03,5.27,5.28c0.1,1.37,0.05,2.75,0.05,4.12
		c0,68.62,0,137.24,0,205.87c0,2.43,0,4.86,0,7.41c50.5,0,100.33,0,150.52,0c-4.36-15.67-4.11-31.03,1.06-46.59
		c-10.86,0-21.33,0.01-31.8,0c-4.72-0.01-7.32-1.99-7.37-5.55c-0.05-3.56,2.6-5.69,7.23-5.7c11.37-0.03,22.75-0.06,34.12,0.04
		c2.12,0.02,3.33-0.6,4.46-2.48c7.59-12.65,18.09-22.22,31.36-28.66c1.9-0.92,2.49-1.96,2.45-3.98c-0.12-6.87-0.07-13.75-0.04-20.62
		c0.03-5.04,2.03-7.05,7.04-7.11c3.43-0.04,6.87-0.01,10.3-0.01c0-66.66,0-132.69,0-198.81c-13.66,0-27.01,0-40.45,0
		c-0.24,0.8-0.46,1.49-0.65,2.2c-4.64,16.92-17.62,26.91-35.14,26.94c-19.12,0.04-38.25-0.01-57.37,0.01
		c-8.31,0.01-15.72-2.57-22.19-7.74c-6.89-5.5-10.98-12.76-12.65-21.29c-13.7,0-27.14,0-40.87,0c0,1.6,0,2.95,0,4.3
		c0,22.25,0,44.5,0,66.75c0,1.25,0.41,2.85-0.2,3.67c-1.29,1.74-3.01,4.1-4.77,4.29c-1.76,0.2-4.13-1.6-5.57-3.14
		c-0.89-0.96-0.69-3.08-0.69-4.67c-0.04-22-0.02-44-0.02-66C1884.98,363.77,1884.98,362.05,1884.98,360.35z M2118.57,594.37
		c-34.96-0.1-63.38,28.14-63.59,63.18c-0.2,35.15,28.19,63.9,63.18,63.98c35.2,0.08,63.6-28.13,63.82-63.39
		C2182.19,623.1,2153.73,594.47,2118.57,594.37z M2053.04,360.21c-34.69,0-69.35,0-104.05,0c2.02,9.78,11.01,17.63,21.13,17.74
		c20.62,0.23,41.24,0.23,61.86,0C2042.14,377.83,2051.52,369.63,2053.04,360.21z M2137.15,585.33c0-5.2,0-9.98,0-14.77
		c-12.69,0-25.09,0-37.45,0c0,5.03,0,9.72,0,14.83C2112.29,582.46,2124.64,582.45,2137.15,585.33z"/>
	<path class="st1" d="M2192.05,589.46c-1.22-1-3.29-1.92-3.95-3.46c-0.67-1.55-0.68-4.35,0.3-5.49c3.82-4.43,8.02-8.57,12.36-12.5
		c2.05-1.86,4.74-1.53,6.85,0.35c2.09,1.86,2.98,4.61,1.13,6.71c-4.1,4.67-8.66,8.94-13.14,13.26
		C2194.97,588.94,2193.76,588.95,2192.05,589.46z"/>
	<path class="st1" d="M2201.73,610.49c-1.54-1.41-3.89-2.59-4.38-4.31c-0.51-1.75,0.14-4.98,1.45-5.9
		c4.66-3.27,9.71-6.03,14.82-8.59c2.55-1.28,4.9,0.08,6.35,2.44c1.41,2.29,1.34,5.02-0.78,6.45c-4.94,3.32-10.22,6.12-15.38,9.09
		c-0.4,0.23-0.97,0.14-1.47,0.2C2202.13,610.07,2201.93,610.28,2201.73,610.49z"/>
	<path class="st1" d="M2172.92,579.68c-4.94-0.1-7.68-4.31-5.78-8.08c2.35-4.65,5.03-9.16,7.86-13.55c1.71-2.66,4.46-3.14,7.23-1.6
		c2.84,1.58,3.65,4.33,2.28,7.05c-2.41,4.76-5.16,9.38-8.07,13.85C2175.6,578.63,2173.69,579.2,2172.92,579.68z"/>
	<path class="st1" d="M1954.66,510.81c8.24,0,16.48-0.02,24.71,0.01c5.09,0.02,7.12,1.89,7.17,6.95c0.09,9.86,0.07,19.72-0.03,29.58
		c-0.05,4.79-2.1,6.72-7.02,6.73c-16.6,0.04-33.2,0.05-49.8,0c-4.89-0.01-6.87-1.95-6.92-6.81c-0.09-9.86-0.1-19.72-0.04-29.58
		c0.03-5,2.07-6.87,7.21-6.89c8.24-0.03,16.48-0.01,24.71-0.01C1954.66,510.8,1954.66,510.8,1954.66,510.81z M1975.04,522.26
		c-13.7,0-27.15,0-40.76,0c0,6.86,0,13.52,0,20.33c13.7,0,27.11,0,40.76,0C1975.04,535.66,1975.04,528.99,1975.04,522.26z"/>
	<path class="st1" d="M1954.84,428.42c8.11,0,16.22-0.02,24.34,0.01c5.35,0.02,7.31,1.88,7.35,7.16c0.07,9.48,0.08,18.97,0.02,28.45
		c-0.03,5.85-1.86,7.67-7.59,7.68c-16.35,0.03-32.7,0.02-49.05-0.01c-5.1-0.01-7.1-1.92-7.14-6.95c-0.07-9.86-0.08-19.72,0.01-29.58
		c0.04-4.81,2.07-6.72,6.97-6.75C1938.11,428.38,1946.48,428.42,1954.84,428.42z M1934.3,460.27c13.62,0,27.06,0,40.65,0
		c0-6.87,0-13.64,0-20.39c-13.68,0-27.02,0-40.65,0C1934.3,446.75,1934.3,453.41,1934.3,460.27z"/>
	<path class="st1" d="M1954.6,593.21c8.36,0,16.72-0.02,25.09,0.01c4.83,0.02,6.81,1.93,6.84,6.82c0.07,9.73,0.06,19.47,0,29.2
		c-0.03,5.21-1.85,7.16-6.94,7.18c-16.6,0.08-33.2,0.07-49.8,0c-5.15-0.02-6.98-1.93-7.02-7.09c-0.06-9.73-0.07-19.47,0-29.2
		c0.04-5.1,1.94-6.88,7.12-6.9c8.24-0.03,16.47-0.01,24.71-0.01C1954.6,593.22,1954.6,593.21,1954.6,593.21z M1974.99,625.03
		c0-7.01,0-13.66,0-20.33c-13.75,0-27.18,0-40.65,0c0,6.88,0,13.52,0,20.33C1947.98,625.03,1961.31,625.03,1974.99,625.03z"/>
	<path class="st1" d="M2044.81,455.7c-9.62,0-19.24,0.07-28.86-0.06c-1.78-0.02-4.03-0.34-5.18-1.45c-1.22-1.18-2.22-3.68-1.81-5.19
		c0.46-1.68,2.47-3.13,4.11-4.21c0.9-0.6,2.43-0.32,3.67-0.32c18.36-0.02,36.73-0.03,55.1-0.04c0.62,0,1.25-0.01,1.87,0.02
		c4.16,0.22,6.56,2.3,6.55,5.64c-0.01,3.36-2.46,5.55-6.59,5.58C2064.05,455.75,2054.43,455.7,2044.81,455.7z"/>
	<path class="st1" d="M2035.07,550.62c-6.62,0-13.24,0.04-19.87-0.01c-4.05-0.03-6.57-2.23-6.56-5.56c0.01-3.35,2.5-5.63,6.57-5.64
		c13.37-0.06,26.74-0.06,40.11,0c4.07,0.02,6.55,2.28,6.55,5.65c0.01,3.38-2.45,5.53-6.56,5.56
		C2048.57,550.66,2041.82,550.63,2035.07,550.62z"/>
	<path class="st1" d="M2035.45,514.21c6.5,0,13-0.04,19.49,0.01c4.53,0.04,6.93,2.04,6.93,5.58c0,3.52-2.45,5.65-6.91,5.67
		c-13.12,0.05-26.24,0.03-39.36-0.03c-4.46-0.02-6.95-2.13-6.96-5.61c-0.01-3.49,2.46-5.56,6.94-5.6
		C2022.21,514.17,2028.83,514.21,2035.45,514.21z"/>
	<path class="st1" d="M2025.69,607.7c-3.74,0-7.49,0.04-11.23-0.01c-3.38-0.04-5.38-1.84-5.78-5.16c-0.37-3.07,1.95-5.85,5.39-5.94
		c7.73-0.2,15.47-0.2,23.2,0.01c3.51,0.1,5.67,2.74,5.37,5.92c-0.32,3.39-2.35,5.13-5.72,5.19c-3.74,0.07-7.48,0.01-11.23,0.01
		C2025.69,607.72,2025.69,607.71,2025.69,607.7z"/>
	<path class="st1" d="M2124.21,619.6c0,9.34,0,18.31,0,27.92c2.9-1.8,5.48-3.41,8.08-5c3.71-2.27,7.01-1.88,8.88,1.03
		c1.9,2.94,0.91,6.02-2.84,8.44c-5.03,3.25-10.14,6.39-15.16,9.67c-2.31,1.51-4.61,2.61-7.32,1.16c-2.7-1.45-3.04-3.96-3.03-6.74
		c0.06-10.75,0.03-21.49,0.03-32.24c0-1.36,0-2.72,0-4.43c-10.43,1.62-18.53,6.47-24.95,14.3c-0.71,0.87-1.31,1.84-2.04,2.68
		c-2.35,2.72-5.4,3.18-7.95,1.25c-2.5-1.89-2.99-5.06-0.98-7.99c6.66-9.72,15.63-16.43,26.91-19.83
		c28.03-8.45,57.66,8.88,63.71,37.18c6.25,29.24-13.47,57.16-43.02,60.89c-29.09,3.67-55.53-19.06-56.35-48.44
		c-0.12-4.22,1.71-6.73,5.09-7c3.62-0.29,6.03,1.84,6.1,6.35c0.3,18.01,13.86,34.47,33.01,37.71c20.55,3.48,40.87-10.98,44.53-31.95
		c3.63-20.8-10.89-41.66-31.31-44.95C2125.26,619.55,2124.88,619.6,2124.21,619.6z"/>
</g>
<g>
	<g>
		<g>
			<path d="M530.64,421.14c-12.51-12.51-32.84-12.57-45.41-0.06L379.64,526.72l-41.44-41.5c-12.51-12.51-32.84-12.51-45.35,0
				c-12.51,12.51-12.51,32.84,0,45.35L357,594.71c6.22,6.29,14.43,9.43,22.64,9.43c8.21,0,16.42-3.14,22.71-9.36l128.28-128.28
				C543.14,453.99,543.14,433.65,530.64,421.14z"/>
		</g>
	</g>
	<g>
		<g>
			<path d="M530.64,677.71c-12.51-12.51-32.84-12.57-45.41-0.06L379.64,783.29l-41.44-41.44c-12.51-12.51-32.84-12.51-45.35,0
				c-12.51,12.51-12.51,32.84,0,45.35L357,851.35c6.22,6.22,14.43,9.36,22.64,9.36c8.21,0,16.42-3.14,22.71-9.36l128.28-128.28
				C543.14,710.55,543.14,690.22,530.64,677.71z"/>
		</g>
	</g>
	<g>
		<g>
			<path d="M764.5,475.86H636.21c-17.7,0-32.07,14.37-32.07,32.07S618.51,540,636.21,540H764.5c17.7,0,32.07-14.37,32.07-32.07
				S782.2,475.86,764.5,475.86z"/>
		</g>
	</g>
	<g>
		<g>
			<path d="M764.5,732.43H636.21c-17.7,0-32.07,14.37-32.07,32.07s14.37,32.07,32.07,32.07H764.5c17.7,0,32.07-14.37,32.07-32.07
				S782.2,732.43,764.5,732.43z"/>
		</g>
	</g>
	<g>
		<g>
			<path d="M860.71,155.15H732.43v-32.07c0-17.7-14.37-32.07-32.07-32.07h-69.59C617.48,53.67,581.82,26.86,540,26.86
				S462.52,53.67,449.24,91h-69.59c-17.7,0-32.07,14.37-32.07,32.07v32.07H219.29c-35.34,0-64.14,28.8-64.14,64.14V989
				c0,35.34,28.8,64.14,64.14,64.14h641.42c35.34,0,64.14-28.8,64.14-64.14V219.29C924.85,183.95,896.05,155.15,860.71,155.15z
				 M411.72,155.15h64.14c17.7,0,32.07-14.37,32.07-32.07S522.3,91,540,91s32.07,14.37,32.07,32.07s14.37,32.07,32.07,32.07h64.14
				v64.14H411.72V155.15z M860.71,989H219.29V219.29h128.28v32.07c0,17.7,14.37,32.07,32.07,32.07h320.71
				c17.7,0,32.07-14.37,32.07-32.07v-32.07h128.28V989z"/>
		</g>
	</g>
</g>
</svg>
