<?xml version="1.0" encoding="utf-8"?>
<svg xmlns="http://www.w3.org/2000/svg" id="Layer_1" style="enable-background:new 0 0 1080 1080;" version="1.1" viewBox="0 0 1080 1080" x="0px" y="0px">
<g>
	<path d="M750.33,461.13l-83.8-195.53l-82.32,123.47H479.63v60.37h136.89l38.42-57.63l97.31,227.06l79.84-199.61h70.12v-60.37&#xD;&#xA;		H791.23L750.33,461.13z"/>
	<path d="M630.55,721.11h271.66v60.37H630.55V721.11z"/>
	<path d="M540,841.85h362.21v60.37H540V841.85z"/>
	<path d="M872.03,87.23V26.86H509.82v60.37H328.71v455.71c-25.19,5.23-48.43,17.37-67.38,35.53C235.41,553.64,201.49,540,165.48,540&#xD;&#xA;		c-76.61,0-138.62,62-138.62,138.62c0,37.03,14.42,71.84,40.6,98.02l193.87,193.87l67.38-67.38v150.01h724.43V87.23H872.03z&#xD;&#xA;		 M811.66,87.23v60.37H570.18V87.23H811.66z M110.15,733.95c-14.78-14.78-22.92-34.43-22.92-55.33c0-43.25,35-78.25,78.25-78.25&#xD;&#xA;		c20.9,0,40.55,8.14,55.33,22.92l40.51,40.51l40.51-40.51c30.58-30.58,80.08-30.58,110.67,0c30.58,30.58,30.59,80.08,0,110.66&#xD;&#xA;		L261.33,885.13L110.15,733.95z M992.77,992.77H389.08V842.76l66.12-66.12c26.18-26.18,40.6-60.99,40.6-98.02&#xD;&#xA;		c0-66.72-46.62-120.82-106.72-134.92V147.6h120.74v60.37h362.21V147.6h120.74V992.77z"/>
</g>
</svg>