<?xml version="1.0" encoding="utf-8"?>
<!-- Generator: Adobe Illustrator 23.0.3, SVG Export Plug-In . SVG Version: 6.00 Build 0)  -->
<svg version="1.1" id="Layer_1" xmlns="http://www.w3.org/2000/svg" xmlns:xlink="http://www.w3.org/1999/xlink" x="0px" y="0px"
	 viewBox="0 0 1080 1080" style="enable-background:new 0 0 1080 1080;" xml:space="preserve">
<style type="text/css">
	.st0{display:none;}
	.st1{display:inline;}
</style>
<g class="st0">
	<path class="st1" d="M750.33,461.13l-83.8-195.53l-82.32,123.47H479.63v60.37h136.89l38.42-57.63l97.31,227.06l79.84-199.61h70.12
		v-60.37H791.23L750.33,461.13z"/>
	<path class="st1" d="M630.55,721.11h271.66v60.37H630.55V721.11z"/>
	<path class="st1" d="M540,841.85h362.21v60.37H540V841.85z"/>
	<path class="st1" d="M872.03,87.23V26.86H509.82v60.37H328.71v455.71c-25.19,5.23-48.43,17.37-67.38,35.53
		C235.41,553.64,201.49,540,165.48,540c-76.61,0-138.62,62-138.62,138.62c0,37.03,14.42,71.84,40.6,98.02l193.87,193.87l67.38-67.38
		v150.01h724.43V87.23H872.03z M811.66,87.23v60.37H570.18V87.23H811.66z M110.15,733.95c-14.78-14.78-22.92-34.43-22.92-55.33
		c0-43.25,35-78.25,78.25-78.25c20.9,0,40.55,8.14,55.33,22.92l40.51,40.51l40.51-40.51c30.58-30.58,80.08-30.58,110.67,0
		c30.58,30.58,30.59,80.08,0,110.66L261.33,885.13L110.15,733.95z M992.77,992.77H389.08V842.76l66.12-66.12
		c26.18-26.18,40.6-60.99,40.6-98.02c0-66.72-46.62-120.82-106.72-134.92V147.6h120.74v60.37h362.21V147.6h120.74V992.77z"/>
</g>
<g>
	<path d="M26.84,449.61c2.56-17.38,4.55-34.86,7.78-52.11c20.27-108.05,73.24-197.14,157.67-267.13
		c69.57-57.67,150-91.15,239.81-100.33C655.09,7.24,853.23,148.88,912.79,354.41c15.75,54.36,20.81,109.83,15.9,166.21
		c-1.4,16.04-9.69,26.8-23.18,30.29c-11.74,3.03-25.75-1.16-31.42-11.95c-4.26-8.11-5.2-17.97-8.25-29.4c-0.65,0-4.11,0-7.57,0
		c-16,0-32.01,0.22-48.01-0.07c-17.36-0.32-30.73-14.06-30.35-30.63c0.38-16.45,13.33-29.13,30.47-29.33
		c19.26-0.22,38.52-0.05,57.83-0.05c-10.69-187.6-169.94-348.52-359.35-359.58c0,19.28,0.19,38.52-0.07,57.75
		c-0.16,12.36-5.89,21.84-17.02,27.34c-9.99,4.93-20.16,4.31-29.47-1.89c-8.87-5.91-13.62-14.36-13.59-25.26
		c0.04-16,0-32.01-0.01-48.01c0-3.24,0-6.47,0-9.76C262.59,99.75,99.34,259.93,89.3,449.48c19.61,0,39.19-0.19,58.76,0.07
		c12.56,0.16,21.58,6.61,26.63,17.86c4.91,10.95,3.34,21.61-4.22,30.96c-6.23,7.7-14.6,11.25-24.57,11.2
		c-18.63-0.08-37.25-0.02-57.54-0.02c7.77,90.12,41.3,168.14,101.84,233.92c69.19,75.18,155.38,116.73,258.47,126.46
		c0-21.16-0.32-41.1,0.11-61.02c0.28-13.08,7.76-21.99,19.65-26.33c11.56-4.23,23.46-2.44,30.97,7.37
		c5.07,6.62,8.35,15.98,8.96,24.36c1.32,18.15,0.41,36.47,0.41,55.71c12.73-1.6,24.23-3.04,35.72-4.5
		c20.13-2.56,34.79,7.46,37.26,25.48c2.36,17.24-9.05,31.12-28.62,34.21c-87.41,13.82-172.5,5.14-253.26-31.33
		C158.68,830.11,70.61,721.92,36.41,570.57c-3.95-17.47-5.21-35.54-7.77-53.33c-0.46-3.23-1.19-6.41-1.79-9.62
		C26.84,488.29,26.84,468.95,26.84,449.61z"/>
	<path d="M832.23,1051.69c-45,0-90,0.06-135.01-0.01c-48.98-0.08-82.63-33.04-82.79-81.89c-0.28-86-0.27-172.01-0.01-258.01
		c0.15-48.95,33.61-81.97,82.6-82.03c90.34-0.11,180.67-0.1,271.01,0c49.24,0.06,83.02,33.78,83.07,82.9
		c0.09,85.34,0.08,170.67,0,256.01c-0.04,49.23-33.72,82.95-82.88,83.06c-45.33,0.1-90.67,0.02-136.01,0.02
		C832.23,1051.72,832.23,1051.7,832.23,1051.69z M674.64,810.87c0,4.47,0,7.76,0,11.06c0.02,48.3,0.02,96.6,0.08,144.9
		c0.02,18.57,5.98,24.53,24.52,24.54c88.94,0.03,177.88,0.03,266.82,0c18.34-0.01,24.8-6.39,24.81-24.57
		c0.04-49.3,0.02-98.6-0.03-147.9c0-2.53-0.42-5.06-0.68-8.03C885.01,810.87,780.55,810.87,674.64,810.87z M990,749.75
		c0.52-1.82,0.84-2.44,0.85-3.06c0.07-10.32,0.14-20.65,0.14-30.97c-0.01-19.83-5.84-25.72-25.55-25.73
		c-53.3-0.04-106.6-0.05-159.89-0.07c-36.31-0.01-72.62-0.06-108.93,0.03c-11.75,0.03-20.54,5.07-21.18,14.14
		c-1.06,15.09-0.29,30.31-0.29,45.66C780.69,749.75,885.19,749.75,990,749.75z"/>
	<path d="M508.89,449.4c35.55,0,69.81-0.08,104.07,0.04c14.31,0.05,25.82,8.22,29.85,20.69c6.01,18.59-7.17,38.91-26.94,39.18
		c-46.31,0.63-92.64,0.52-138.95,0.03c-16.25-0.17-28.09-13.57-28.13-30.46c-0.17-59.98-0.18-119.96,0.01-179.94
		c0.05-17.13,13.03-29.97,29.48-30.18c16.82-0.21,30.25,12.73,30.49,30.37c0.36,26.99,0.12,53.98,0.12,80.97
		C508.9,402.72,508.89,425.35,508.89,449.4z"/>
</g>
</svg>
