<!DOCTYPE svg PUBLIC "-//W3C//DTD SVG 1.1//EN" "http://www.w3.org/Graphics/SVG/1.1/DTD/svg11.dtd">
<!-- Uploaded to: SVG Repo, www.svgrepo.com, Transformed by: SVG Repo Mixer Tools -->
<svg fill="#000000" version="1.1" id="Layer_1" xmlns="http://www.w3.org/2000/svg" xmlns:xlink="http://www.w3.org/1999/xlink" viewBox="0 0 492.308 492.308" xml:space="preserve" width="64px" height="64px">
<g id="SVGRepo_bgCarrier" stroke-width="0"/>
<g id="SVGRepo_tracerCarrier" stroke-linecap="round" stroke-linejoin="round"/>
<g id="SVGRepo_iconCarrier"> <g> <g> <path d="M398.637,0H93.666C57.993,0,28.974,29.019,28.974,64.692v312.01v30.058V432c0,33.25,27.053,60.308,60.308,60.308h313.745 c33.255,0,60.308-27.058,60.308-60.308v-25.24v-30.058V64.692C463.334,29.019,434.31,0,398.637,0z M443.642,406.76V432 c0,22.394-18.221,40.615-40.615,40.615H89.281c-22.394,0-40.615-18.221-40.615-40.615v-25.24v-30.058 c0-22.394,18.221-40.615,40.615-40.615h313.745c22.394,0,40.615,18.221,40.615,40.615V406.76z M443.642,332.252 c-10.73-9.813-24.963-15.858-40.615-15.858H89.281c-15.653,0-29.885,6.046-40.615,15.858V64.692c0-24.817,20.188-45,45-45h304.971 c24.817,0,45.005,20.183,45.005,45V332.252z"/> </g> </g> <g> <g> <path d="M246.151,68.01c-37.063,0-67.216,30.154-67.216,67.221c0,37.058,30.154,67.212,67.216,67.212s67.216-30.154,67.216-67.212 C313.368,98.163,283.214,68.01,246.151,68.01z M246.151,182.75c-26.207,0-47.524-21.317-47.524-47.519 c0-26.211,21.317-47.529,47.524-47.529s47.524,21.317,47.524,47.529C293.676,161.433,272.358,182.75,246.151,182.75z"/> </g> </g> <g> <g> <rect x="98.274" y="371.742" width="19.692" height="62.72"/> </g> </g> <g> <g> <rect x="157.834" y="371.742" width="19.692" height="62.72"/> </g> </g> </g>
</svg>